<svg width="16" height="20" viewBox="0 0 16 20" fill="none" xmlns="http://www.w3.org/2000/svg">
<path d="M2.1 0C1.5 0 1 0.2 0.6 0.6C0.2 1 0 1.5 0 2.1V16.3C0 17.3 0.8 18.1 1.8 18.1H10.3V20L11.9 19.2L13.5 20V18.1H15.6V0H2.1ZM3.8 14.6V1.2H14.4V14.6H3.8ZM1.2 2.1C1.2 1.8 1.3 1.6 1.5 1.4C1.7 1.2 1.9 1.1 2.1 1.1H2.7V14.5H1.8C1.6 14.5 1.4 14.5 1.2 14.6V2.1ZM1.8 16.9C1.5 16.9 1.2 16.6 1.2 16.3C1.2 16 1.5 15.7 1.8 15.7H10.3V16.9H1.8ZM11.9 17.9L11.5 18.1V15.7H12.4V18.1L11.9 17.9ZM14.4 16.9H13.4V15.7H14.4V16.9Z" fill="#005EB8"/>
<path d="M12.8998 5.70001V5.60001C12.8998 5.60001 12.8998 5.50001 12.7998 5.50001C12.7998 5.50001 12.7998 5.40001 12.6998 5.40001C12.6998 5.40001 12.6998 5.40001 12.5998 5.30001L12.4998 5.20001H12.3998H12.2998H5.8998H5.7998H5.6998C5.6998 5.20001 5.5998 5.20001 5.5998 5.30001C5.5998 5.30001 5.4998 5.30001 5.4998 5.40001C5.4998 5.40001 5.4998 5.40001 5.3998 5.50001L5.2998 5.60001V5.70001V5.80001V10.3V10.4V10.5C5.2998 10.5 5.2998 10.6 5.3998 10.6C5.3998 10.6 5.3998 10.7 5.4998 10.7C5.4998 10.7 5.4998 10.7 5.5998 10.8L5.6998 10.9H5.7998H5.8998H12.3998H12.4998H12.5998C12.5998 10.9 12.6998 10.9 12.6998 10.8C12.6998 10.8 12.7998 10.8 12.7998 10.7C12.7998 10.7 12.7998 10.7 12.8998 10.6L12.9998 10.5V10.4V10.3L12.8998 5.70001ZM6.4998 6.40001H11.7998V9.70001H6.4998V6.40001Z" fill="#005EB8"/>
</svg>
