<svg width="16" height="20" viewBox="0 0 16 20" fill="none" xmlns="http://www.w3.org/2000/svg">
<path d="M2.1 0C1.5 0 1 0.2 0.6 0.6C0.2 1 0 1.5 0 2.1V16.3C0 17.3 0.8 18.1 1.8 18.1H10.3V20L11.9 19.2L13.5 20V18.1H15.6V0H2.1ZM3.8 14.6V1.2H14.4V14.6H3.8ZM1.2 2.1C1.2 1.8 1.3 1.6 1.5 1.4C1.7 1.2 1.9 1.1 2.1 1.1H2.7V14.5H1.8C1.6 14.5 1.4 14.5 1.2 14.6V2.1ZM1.8 16.9C1.5 16.9 1.2 16.6 1.2 16.3C1.2 16 1.5 15.7 1.8 15.7H10.3V16.9H1.8ZM11.9 17.9L11.5 18.1V15.7H12.4V18.1L11.9 17.9ZM14.4 16.9H13.4V15.7H14.4V16.9Z" fill="#7A7C7D"/>
<path d="M12.9 5.69995V5.59995C12.9 5.59995 12.9 5.49995 12.8 5.49995C12.8 5.49995 12.8 5.39995 12.7 5.39995C12.7 5.39995 12.7 5.39995 12.6 5.29995L12.5 5.19995H12.4H12.3H5.9H5.8H5.7C5.7 5.19995 5.6 5.19995 5.6 5.29995C5.6 5.29995 5.5 5.29995 5.5 5.39995C5.5 5.39995 5.5 5.39995 5.4 5.49995L5.3 5.59995V5.69995V5.79995V10.3V10.4V10.5C5.3 10.5 5.3 10.6 5.4 10.6C5.4 10.6 5.4 10.7 5.5 10.7C5.5 10.7 5.5 10.7 5.6 10.8L5.7 10.9H5.8H5.9H12.4H12.5H12.6C12.6 10.9 12.7 10.9 12.7 10.8C12.7 10.8 12.8 10.8 12.8 10.7C12.8 10.7 12.8 10.7 12.9 10.6L13 10.5V10.4V10.3L12.9 5.69995ZM6.5 6.39995H11.8V9.69995H6.5V6.39995Z" fill="#7A7C7D"/>
</svg>
