<svg width="20" height="20" viewBox="0 0 20 20" fill="none" xmlns="http://www.w3.org/2000/svg">
<path d="M6.6002 14.9C5.6002 14.9 4.7002 15.7 4.7002 16.8C4.7002 17.8 5.5002 18.7 6.6002 18.7C7.7002 18.7 8.5002 17.9 8.5002 16.8C8.5002 15.7 7.7002 14.9 6.6002 14.9ZM6.6002 17.5C6.2002 17.5 5.9002 17.2 5.9002 16.8C5.9002 16.4 6.2002 16.1 6.6002 16.1C7.0002 16.1 7.3002 16.4 7.3002 16.8C7.3002 17.1 7.0002 17.5 6.6002 17.5Z" fill="#005EB8"/>
<path d="M3.2 17.7C2.6 17.7 2 18.2 2 18.9C2 19.6 2.6 20 3.2 20C3.8 20 4.4 19.5 4.4 18.8C4.4 18.1 3.9 17.7 3.2 17.7Z" fill="#005EB8"/>
<path d="M9.3 8.99999H8.2L9.3 7.49999C9.4 7.39999 9.5 7.19999 9.5 7.09999C9.5 6.89999 9.4 6.79999 9.2 6.79999H7.3C7.1 6.79999 7 6.99999 7 7.19999C7 7.39999 7.1 7.59999 7.3 7.59999H8.3L7.1 8.99999C7.1 9.09999 7 9.29999 7 9.39999C7 9.49999 7.1 9.69999 7.3 9.69999H9.3C9.5 9.69999 9.6 9.49999 9.6 9.29999C9.6 9.09999 9.5 8.99999 9.3 8.99999Z" fill="#005EB8"/>
<path d="M13.2998 6.99999H12.0998L13.2998 5.49999C13.3998 5.39999 13.4998 5.19999 13.4998 5.09999C13.4998 4.89999 13.2998 4.79999 13.1998 4.79999H11.1998C10.9998 4.79999 10.8998 4.99999 10.8998 5.19999C10.8998 5.39999 10.9998 5.59999 11.1998 5.59999H12.1998L10.9998 6.99999C10.8998 7.09999 10.7998 7.29999 10.7998 7.39999C10.7998 7.49999 10.8998 7.79999 11.0998 7.79999H13.1998C13.3998 7.79999 13.4998 7.59999 13.4998 7.39999C13.4998 7.19999 13.3998 6.99999 13.2998 6.99999Z" fill="#005EB8"/>
<path d="M19 6.3C18.5 5.7 17.8 5.3 17 5.2C16.8 3.8 16.1 2.6 15 1.6C13.9 0.6 12.4 0 10.8 0C8.3 0 6 1.5 5 3.8C4.8 3.8 4.6 3.8 4.4 3.8C2 3.7 0 5.7 0 8.2C0 10.7 2 12.6 4.4 12.6H6.1C6.6 13.5 7.6 14.1 8.7 14.1C9.8 14.1 10.8 13.5 11.3 12.6H16.2C18.3 12.6 20 10.9 20 8.8C20 7.9 19.6 7 19 6.3ZM16.2 11.5H11C10.8 11.5 10.5 11.6 10.5 11.9C10.2 12.6 9.5 13.1 8.8 13.1C8 13 7.3 12.5 7 11.8C6.9 11.6 6.7 11.4 6.5 11.4H4.5C2.7 11.4 1.2 9.9 1.2 8.1C1.2 6.3 2.7 4.8 4.5 4.8C4.7 4.9 5 5 5.3 5C5.6 5.1 5.9 4.9 6 4.6C6.7 2.5 8.7 1.1 10.9 1.1C12.2 1.1 13.4 1.6 14.3 2.4C15.2 3.3 15.8 4.4 16 5.7C16 6 16.3 6.2 16.5 6.2C17.1 6.3 17.7 6.5 18.2 7C18.6 7.5 18.9 8.1 18.9 8.8C18.8 10.3 17.7 11.5 16.2 11.5Z" fill="#005EB8"/>
</svg>
