<svg width="20" height="20" viewBox="0 0 20 20" fill="none" xmlns="http://www.w3.org/2000/svg">
<path d="M6.6 14.8999C5.6 14.8999 4.7 15.6999 4.7 16.7999C4.7 17.7999 5.5 18.6999 6.6 18.6999C7.7 18.6999 8.5 17.8999 8.5 16.7999C8.5 15.6999 7.7 14.8999 6.6 14.8999ZM6.6 17.4999C6.2 17.4999 5.9 17.1999 5.9 16.7999C5.9 16.3999 6.2 16.0999 6.6 16.0999C7 16.0999 7.3 16.3999 7.3 16.7999C7.3 17.0999 7 17.4999 6.6 17.4999Z" fill="#7A7C7D"/>
<path d="M3.2 17.7C2.6 17.7 2 18.2 2 18.9C2 19.6 2.6 20 3.2 20C3.8 20 4.4 19.4999 4.4 18.7999C4.4 18.0999 3.9 17.7 3.2 17.7Z" fill="#7A7C7D"/>
<path d="M9.3 9.00005H8.2L9.3 7.50005C9.4 7.40005 9.5 7.20005 9.5 7.10005C9.5 6.90005 9.4 6.80005 9.2 6.80005H7.3C7.1 6.80005 7 7.00005 7 7.20005C7 7.40005 7.1 7.60005 7.3 7.60005H8.3L7.1 9.00005C7.1 9.10005 7 9.30005 7 9.40005C7 9.50005 7.1 9.70005 7.3 9.70005H9.3C9.5 9.70005 9.6 9.50005 9.6 9.30005C9.6 9.10005 9.5 9.00005 9.3 9.00005Z" fill="#7A7C7D"/>
<path d="M13.3 7.00005H12.1L13.3 5.50005C13.4 5.40005 13.5 5.20005 13.5 5.10005C13.5 4.90005 13.3 4.80005 13.2 4.80005H11.2C11 4.80005 10.9 5.00005 10.9 5.20005C10.9 5.40005 11 5.60005 11.2 5.60005H12.2L11 7.00005C10.9 7.10005 10.8 7.30005 10.8 7.40005C10.8 7.50005 10.9 7.80005 11.1 7.80005H13.2C13.4 7.80005 13.5 7.60005 13.5 7.40005C13.5 7.20005 13.4 7.00005 13.3 7.00005Z" fill="#7A7C7D"/>
<path d="M19 6.3C18.5 5.7 17.8 5.3 17 5.2C16.8 3.8 16.1 2.6 15 1.6C13.9 0.6 12.4 0 10.8 0C8.3 0 6 1.5 5 3.8C4.8 3.8 4.6 3.8 4.4 3.8C2 3.7 0 5.7 0 8.2C0 10.7 2 12.6 4.4 12.6H6.1C6.6 13.5 7.6 14.1 8.7 14.1C9.8 14.1 10.8 13.5 11.3 12.6H16.2C18.3 12.6 20 10.9 20 8.8C20 7.9 19.6 7 19 6.3ZM16.2 11.5H11C10.8 11.5 10.5 11.6 10.5 11.9C10.2 12.6 9.5 13.1 8.8 13.1C8 13 7.3 12.5 7 11.8C6.9 11.6 6.7 11.4 6.5 11.4H4.5C2.7 11.4 1.2 9.9 1.2 8.1C1.2 6.3 2.7 4.8 4.5 4.8C4.7 4.9 5 5 5.3 5C5.6 5.1 5.9 4.9 6 4.6C6.7 2.5 8.7 1.1 10.9 1.1C12.2 1.1 13.4 1.6 14.3 2.4C15.2 3.3 15.8 4.4 16 5.7C16 6 16.3 6.2 16.5 6.2C17.1 6.3 17.7 6.5 18.2 7C18.6 7.5 18.9 8.1 18.9 8.8C18.8 10.3 17.7 11.5 16.2 11.5Z" fill="#7A7C7D"/>
</svg>
