<svg width="20" height="20" viewBox="0 0 20 20" fill="none" xmlns="http://www.w3.org/2000/svg">
<path d="M14.6997 14.8C14.5997 13.5 13.6997 12.4 12.5997 11.9C12.9997 11.4 13.1997 10.7 13.1997 9.99999C13.1997 8.19999 11.7997 6.79999 9.99969 6.79999C8.19969 6.79999 6.79969 8.19999 6.79969 9.99999C6.79969 10.7 6.99969 11.4 7.39969 11.9C6.29969 12.4 5.39969 13.5 5.29969 14.8L4.99969 17.4C4.89969 18 5.29969 18.5 5.89969 18.7C7.19969 19 8.59969 19.1 9.99969 19.1C11.3997 19.1 12.7997 19 14.0997 18.7C14.6997 18.6 15.0997 18 14.9997 17.4L14.6997 14.8ZM9.99969 7.79999C11.1997 7.79999 12.1997 8.79999 12.1997 9.99999C12.1997 11.2 11.1997 12.2 9.99969 12.2C8.79969 12.2 7.79969 11.2 7.79969 9.99999C7.79969 8.79999 8.79969 7.79999 9.99969 7.79999ZM13.8997 17.7C11.3997 18.2 8.59969 18.2 6.09969 17.7C5.99969 17.6 5.99969 17.6 5.99969 17.5L6.29969 14.9C6.39969 13.8 7.19969 12.9 8.29969 12.6C8.79969 12.9 9.39969 13.1 10.0997 13.1C10.7997 13.1 11.3997 12.9 11.8997 12.6C12.8997 12.9 13.7997 13.7 13.8997 14.9L14.1997 17.5C14.0997 17.6 13.9997 17.6 13.8997 17.7Z" fill="#005EB8"/>
<path d="M9.5002 3.4V5.1C9.5002 5.4 9.7002 5.6 10.0002 5.6C10.3002 5.6 10.5002 5.4 10.5002 5.1V3.4C11.2002 3.2 11.7002 2.5 11.7002 1.7C11.7002 0.8 11.0002 0 10.0002 0C9.0002 0 8.2002 0.8 8.2002 1.7C8.3002 2.5 8.8002 3.2 9.5002 3.4ZM10.0002 1C10.4002 1 10.8002 1.3 10.8002 1.8C10.8002 2.3 10.4002 2.5 10.0002 2.5C9.6002 2.5 9.2002 2.2 9.2002 1.7C9.2002 1.2 9.6002 1 10.0002 1Z" fill="#005EB8"/>
<path d="M4.20039 5.9C4.50039 5.9 4.80039 5.8 5.00039 5.7L6.20039 6.9C6.30039 7 6.50039 7.1 6.60039 7.1C6.70039 7.1 6.90039 7.1 7.00039 7C7.20039 6.8 7.20039 6.5 7.00039 6.3L5.70039 5C5.80039 4.7 5.90039 4.5 5.90039 4.2C5.90039 3.2 5.10039 2.5 4.20039 2.5C3.30039 2.5 2.40039 3.2 2.40039 4.2C2.40039 5.2 3.20039 5.9 4.20039 5.9ZM4.20039 3.4C4.60039 3.4 5.00039 3.7 5.00039 4.2C5.00039 4.7 4.60039 4.9 4.20039 4.9C3.80039 4.9 3.40039 4.6 3.40039 4.1C3.40039 3.6 3.80039 3.4 4.20039 3.4Z" fill="#005EB8"/>
<path d="M18.3004 8.20001C17.5004 8.20001 16.8004 8.70001 16.6004 9.40001H14.9004C14.6004 9.40001 14.4004 9.60001 14.4004 9.90001C14.4004 10.2 14.6004 10.4 14.9004 10.4H16.6004C16.8004 11.1 17.5004 11.6 18.3004 11.6C19.3004 11.6 20.0004 10.8 20.0004 9.90001C20.0004 9.00001 19.2004 8.20001 18.3004 8.20001ZM18.3004 10.7C17.9004 10.7 17.5004 10.4 17.5004 9.90001C17.5004 9.50001 17.8004 9.10001 18.3004 9.10001C18.7004 9.10001 19.1004 9.40001 19.1004 9.90001C19.0004 10.4 18.7004 10.7 18.3004 10.7Z" fill="#005EB8"/>
<path d="M5.2 10.5C5.5 10.5 5.7 10.3 5.7 9.99999C5.7 9.69999 5.5 9.49999 5.2 9.49999H3.4C3.2 8.79999 2.5 8.29999 1.7 8.29999C0.8 8.29999 0 9.09999 0 9.99999C0 10.9 0.8 11.7 1.7 11.7C2.5 11.7 3.2 11.2 3.4 10.5H5.2ZM1.8 10.7C1.3 10.7 1 10.4 1 9.99999C1 9.59999 1.3 9.19999 1.8 9.19999C2.3 9.19999 2.5 9.59999 2.5 9.99999C2.5 10.4 2.2 10.7 1.8 10.7Z" fill="#005EB8"/>
<path d="M13.4002 7.1C13.5002 7.1 13.7002 7.1 13.8002 7L15.0002 5.7C15.3002 5.8 15.5002 5.9 15.8002 5.9C16.8002 5.9 17.5002 5.1 17.5002 4.2C17.5002 3.3 16.7002 2.5 15.8002 2.5C14.9002 2.5 14.1002 3.3 14.1002 4.2C14.1002 4.5 14.2002 4.8 14.3002 5L13.1002 6.2C12.9002 6.4 12.9002 6.7 13.1002 6.9C13.2002 7 13.3002 7.1 13.4002 7.1ZM15.8002 3.4C16.2002 3.4 16.6002 3.7 16.6002 4.2C16.6002 4.7 16.3002 5 15.8002 5C15.3002 5 15.0002 4.7 15.0002 4.2C15.0002 3.7 15.4002 3.4 15.8002 3.4Z" fill="#005EB8"/>
</svg>
