<svg width="20" height="20" viewBox="0 0 20 20" fill="none" xmlns="http://www.w3.org/2000/svg">
<path d="M14.7 14.8C14.6 13.5 13.7 12.4 12.6 11.9C13 11.4 13.2 10.7 13.2 10C13.2 8.20005 11.8 6.80005 10 6.80005C8.2 6.80005 6.8 8.20005 6.8 10C6.8 10.7 7 11.4 7.4 11.9C6.3 12.4 5.4 13.5 5.3 14.8L5 17.4C4.9 18 5.3 18.5 5.9 18.7C7.2 19 8.6 19.1 10 19.1C11.4 19.1 12.8 19 14.1 18.7C14.7 18.6 15.1 18 15 17.4L14.7 14.8ZM10 7.80005C11.2 7.80005 12.2 8.80005 12.2 10C12.2 11.2 11.2 12.2 10 12.2C8.8 12.2 7.8 11.2 7.8 10C7.8 8.80005 8.8 7.80005 10 7.80005ZM13.9 17.7C11.4 18.2 8.6 18.2 6.1 17.7C6 17.6 6 17.6 6 17.5L6.3 14.9C6.4 13.8 7.2 12.9 8.3 12.6C8.8 12.9 9.4 13.1 10.1 13.1C10.8 13.1 11.4 12.9 11.9 12.6C12.9 12.9 13.8 13.7 13.9 14.9L14.2 17.5C14.1 17.6 14 17.6 13.9 17.7Z" fill="#7A7C7D"/>
<path d="M9.5 3.4V5.1C9.5 5.4 9.7 5.6 10 5.6C10.3 5.6 10.5 5.4 10.5 5.1V3.4C11.2 3.2 11.7 2.5 11.7 1.7C11.7 0.8 11 0 10 0C9 0 8.2 0.8 8.2 1.7C8.3 2.5 8.8 3.2 9.5 3.4ZM10 1C10.4 1 10.8 1.3 10.8 1.8C10.8 2.3 10.4 2.5 10 2.5C9.6 2.5 9.2 2.2 9.2 1.7C9.2 1.2 9.6 1 10 1Z" fill="#7A7C7D"/>
<path d="M4.2 5.9C4.5 5.9 4.8 5.8 5 5.7L6.2 6.9C6.3 7 6.5 7.1 6.6 7.1C6.7 7.1 6.9 7.1 7 7C7.2 6.8 7.2 6.5 7 6.3L5.7 5C5.8 4.7 5.9 4.5 5.9 4.2C5.9 3.2 5.1 2.5 4.2 2.5C3.3 2.5 2.4 3.2 2.4 4.2C2.4 5.2 3.2 5.9 4.2 5.9ZM4.2 3.4C4.6 3.4 5 3.7 5 4.2C5 4.7 4.6 4.9 4.2 4.9C3.8 4.9 3.4 4.6 3.4 4.1C3.4 3.6 3.8 3.4 4.2 3.4Z" fill="#7A7C7D"/>
<path d="M18.3 8.19995C17.5 8.19995 16.8 8.69995 16.6 9.39995H14.9C14.6 9.39995 14.4 9.59995 14.4 9.89995C14.4 10.2 14.6 10.4 14.9 10.4H16.6C16.8 11.1 17.5 11.6 18.3 11.6C19.3 11.6 20 10.8 20 9.89995C20 8.99995 19.2 8.19995 18.3 8.19995ZM18.3 10.7C17.9 10.7 17.5 10.4 17.5 9.89995C17.5 9.49995 17.8 9.09995 18.3 9.09995C18.7 9.09995 19.1 9.39995 19.1 9.89995C19 10.4 18.7 10.7 18.3 10.7Z" fill="#7A7C7D"/>
<path d="M5.2 10.5C5.5 10.5 5.7 10.3 5.7 10C5.7 9.70005 5.5 9.50005 5.2 9.50005H3.4C3.2 8.80005 2.5 8.30005 1.7 8.30005C0.8 8.30005 0 9.10005 0 10C0 10.9 0.8 11.7 1.7 11.7C2.5 11.7 3.2 11.2 3.4 10.5H5.2ZM1.8 10.7C1.3 10.7 1 10.4 1 10C1 9.60005 1.3 9.20005 1.8 9.20005C2.3 9.20005 2.5 9.60005 2.5 10C2.5 10.4 2.2 10.7 1.8 10.7Z" fill="#7A7C7D"/>
<path d="M13.4 7.1C13.5 7.1 13.7 7.1 13.8 7L15 5.7C15.3 5.8 15.5 5.9 15.8 5.9C16.8 5.9 17.5 5.1 17.5 4.2C17.5 3.3 16.7 2.5 15.8 2.5C14.9 2.5 14.1 3.3 14.1 4.2C14.1 4.5 14.2 4.8 14.3 5L13.1 6.2C12.9 6.4 12.9 6.7 13.1 6.9C13.2 7 13.3 7.1 13.4 7.1ZM15.8 3.4C16.2 3.4 16.6 3.7 16.6 4.2C16.6 4.7 16.3 5 15.8 5C15.3 5 15 4.7 15 4.2C15 3.7 15.4 3.4 15.8 3.4Z" fill="#7A7C7D"/>
</svg>
