<svg width="21" height="19" viewBox="0 0 21 19" fill="none" xmlns="http://www.w3.org/2000/svg">
<path d="M19.4 11.3H16.2V0.6C16.2 0.3 15.9 0 15.6 0H0.6C0.3 0 0 0.3 0 0.6V16C0 17.6 1.3 18.9 2.9 18.9H17.5C18.9 18.9 20.1 17.8 20.1 16.3V11.9C20 11.6 19.7 11.3 19.4 11.3ZM2.9 17.6C2 17.6 1.3 16.9 1.3 16V1.2H14.9V16.3C14.9 16.8 15 17.2 15.3 17.6H2.9ZM18.7 16.3C18.7 17 18.1 17.6 17.3 17.5C16.6 17.5 16.1 16.9 16.1 16.3V12.5H18.7V16.3ZM12.2 4.6C12.2 4.9 11.9 5.2 11.6 5.2H3.8C3.5 5.2 3.2 4.9 3.2 4.6C3.2 4.3 3.5 4 3.8 4H11.6C11.9 3.9 12.2 4.2 12.2 4.6ZM12.2 8.6C12.2 8.9 11.9 9.2 11.6 9.2H3.8C3.4 9.2 3.2 9 3.2 8.6C3.2 8.3 3.4 8 3.8 8H11.6C11.9 8 12.2 8.3 12.2 8.6ZM12.2 12.7C12.2 13 11.9 13.3 11.6 13.3H3.8C3.5 13.3 3.2 13 3.2 12.7C3.2 12.4 3.5 12.1 3.8 12.1H11.6C11.9 12.1 12.2 12.3 12.2 12.7Z" fill="#7A7C7D"/>
</svg>
