<svg width="20" height="20" viewBox="0 0 20 20" fill="none" xmlns="http://www.w3.org/2000/svg">
<path d="M18.6 15.7C18.9 15.4 19 14.9 19 14.5C19 13.6 18.4 12.9 17.6 12.6V10C17.6 9.7 17.3 9.4 17 9.4H14.8V7.4H16.6C16.9 7.4 17.2 7.1 17.2 6.8V5.7C17.2 4.6 16.6 3.7 15.8 3.2C16.1 2.9 16.2 2.4 16.2 2C16.2 0.9 15.3 0 14.2 0C13.1 0 12.2 0.9 12.2 2C12.2 2.5 12.4 2.9 12.6 3.2C11.8 3.7 11.2 4.6 11.2 5.7V6.9C11.2 7.2 11.5 7.5 11.8 7.5H13.6V9.5H6.3V7.5H8C8.3 7.5 8.6 7.2 8.6 6.9V5.7C8.6 4.6 8 3.7 7.2 3.2C7.5 2.8 7.7 2.4 7.7 2C7.7 0.9 6.8 0 5.7 0C4.6 0 3.7 0.9 3.7 2C3.7 2.5 3.9 2.9 4.1 3.2C3.3 3.7 2.8 4.6 2.8 5.7V6.9C2.8 7.2 3.1 7.5 3.4 7.5H5.2V9.5H2.9C2.6 9.5 2.3 9.8 2.3 10.1V12.8C1.5 13 0.9 13.8 0.9 14.7C0.9 15.2 1.1 15.6 1.3 15.9C0.6 16.3 0 17.2 0 18.2V19.4C0 19.7 0.3 20 0.6 20H5.3C5.6 20 5.9 19.7 5.9 19.4V18.2C5.9 17.1 5.3 16.2 4.5 15.7C4.8 15.4 4.9 14.9 4.9 14.5C4.9 13.6 4.3 12.9 3.5 12.6V10.5H9.4V12.6C8.6 12.8 8 13.6 8 14.5C8 15 8.2 15.4 8.4 15.7C7.6 16.2 7 17.1 7 18.2V19.4C7 19.7 7.3 20 7.6 20H12.3C12.6 20 12.9 19.7 12.9 19.4V18.2C12.9 17.1 12.3 16.2 11.5 15.7C11.8 15.4 11.9 14.9 11.9 14.5C11.9 13.6 11.3 12.9 10.5 12.6V10.5H16.4V12.6C15.6 12.8 15 13.6 15 14.5C15 15 15.2 15.4 15.4 15.7C14.6 16.2 14 17.1 14 18.2V19.4C14 19.7 14.3 20 14.6 20H19.3C19.6 20 19.9 19.7 19.9 19.4V18.2C20 17.2 19.4 16.3 18.6 15.7ZM13.5 2C13.5 1.6 13.9 1.2 14.3 1.2C14.7 1.2 15.1 1.6 15.1 2C15.1 2.4 14.7 2.8 14.3 2.8C13.9 2.8 13.5 2.4 13.5 2ZM12.5 5.7C12.5 4.7 13.3 3.9 14.3 3.9C15.3 3.9 16.1 4.7 16.1 5.7V6.3H12.6V5.7H12.5ZM4.9 2C4.9 1.6 5.3 1.2 5.7 1.2C6.1 1.2 6.5 1.5 6.5 2C6.5 2.5 6.1 2.7 5.7 2.7C5.3 2.7 4.9 2.4 4.9 2ZM3.9 5.7C3.9 4.7 4.7 3.9 5.7 3.9C6.7 3.9 7.5 4.7 7.5 5.7V6.3H3.9V5.7ZM4.7 18.8H1.2V18.2C1.2 17.2 2 16.4 3 16.4C4 16.4 4.8 17.2 4.8 18.2V18.8H4.7ZM2.9 15.3C2.5 15.3 2.1 14.9 2.1 14.5C2.1 14.1 2.5 13.7 2.9 13.7C3.3 13.7 3.7 14.1 3.7 14.5C3.7 14.9 3.4 15.3 2.9 15.3ZM11.8 18.8H8.2V18.2C8.2 17.2 9 16.4 10 16.4C11 16.4 11.8 17.2 11.8 18.2V18.8ZM10 15.3C9.6 15.3 9.2 14.9 9.2 14.5C9.2 14.1 9.6 13.7 10 13.7C10.4 13.7 10.8 14.1 10.8 14.5C10.8 14.9 10.4 15.3 10 15.3ZM16.3 14.5C16.3 14.1 16.7 13.7 17.1 13.7C17.5 13.7 17.9 14.1 17.9 14.5C17.9 14.9 17.5 15.3 17.1 15.3C16.7 15.3 16.3 15 16.3 14.5ZM18.8 18.8H15.3V18.2C15.3 17.2 16.1 16.4 17.1 16.4C18.1 16.4 18.9 17.2 18.9 18.2V18.8H18.8Z" fill="#7A7C7D"/>
</svg>
