<svg width="20" height="21" viewBox="0 0 20 21" fill="none" xmlns="http://www.w3.org/2000/svg">
<path d="M19.1 7.41411C18.3 6.81411 17.2 6.91411 16.4 7.61411L13 10.8141C12.7 10.0141 12 9.41411 11.1 9.41411H5.9C5.8 9.41411 5.7 9.41411 5.6 9.51411L3.5 10.9141L3.3 10.4141C3.2 10.1141 2.8 10.0141 2.5 10.1141L0.4 11.2141C0 11.4141 -0.1 11.7141 0.1 12.0141L4 19.7141C4.1 20.0141 4.5 20.1141 4.8 20.0141L6.9 18.9141C7.2 18.8141 7.3 18.4141 7.2 18.1141L7 17.7141L7.8 17.0141H11.7C12.6 17.0141 13.5 16.6141 14.2 15.9141L19.4 10.4141C20.2 9.51411 20.1 8.11411 19.1 7.41411ZM4.8 18.6141L1.4 12.0141L2.5 11.5141L5.9 18.1141L4.8 18.6141ZM18.5 9.61411L13.3 15.1141C12.9 15.6141 12.3 15.8141 11.7 15.8141H7.7C7.6 15.8141 7.5 15.8141 7.4 15.9141L6.5 16.5141L4 12.0141L6 10.6141H11C11.5 10.6141 11.9 11.0141 11.9 11.5141C11.9 12.0141 11.5 12.4141 11 12.4141H7.6C7.3 12.4141 7 12.7141 7 13.0141C7 13.3141 7.3 13.6141 7.6 13.6141H11C11.6 13.6141 12.1 13.4141 12.5 13.0141L17.3 8.51411C17.6 8.21411 18.1 8.21411 18.5 8.41411C18.8 8.61411 18.9 9.21411 18.5 9.61411Z" fill="#005EB8"/>
<path d="M8.20039 6.71409C9.30039 7.61409 10.3004 8.21409 10.3004 8.21409C10.5004 8.31409 10.7004 8.31409 10.9004 8.21409C10.9004 8.21409 12.0004 7.61409 13.0004 6.71409C14.5004 5.41409 15.3004 4.21409 15.3004 3.01409C15.3004 0.514094 12.3004 -0.885906 10.6004 0.814094C8.90039 -0.985905 5.90039 0.414094 5.90039 2.91409C5.90039 4.11409 6.70039 5.41409 8.20039 6.71409ZM8.70039 1.21409C9.20039 1.21409 9.70039 1.51409 10.0004 2.11409C10.2004 2.51409 10.8004 2.51409 11.0004 2.11409C11.4004 1.41409 12.0004 1.11409 12.7004 1.31409C13.3004 1.51409 14.0004 2.11409 14.0004 3.01409C14.0004 4.61409 11.7004 6.31409 10.5004 7.01409C9.20039 6.21409 7.00039 4.51409 7.00039 3.01409C7.10039 1.81409 8.00039 1.21409 8.70039 1.21409Z" fill="#005EB8"/>
</svg>
