<svg width="20" height="22" viewBox="0 0 20 22" fill="none" xmlns="http://www.w3.org/2000/svg">
<path d="M19.1 8.39983C18.3 7.79983 17.2 7.89983 16.4 8.59983L13 11.7998C12.7 10.9998 12 10.3998 11.1 10.3998H5.9C5.8 10.3998 5.7 10.3998 5.6 10.4998L3.5 11.8998L3.3 11.3998C3.2 11.0998 2.8 10.9998 2.5 11.0998L0.4 12.1998C0 12.3998 -0.1 12.6998 0.1 12.9998L4 20.6998C4.1 20.9998 4.5 21.0998 4.8 20.9998L6.9 19.8998C7.2 19.7998 7.3 19.3998 7.2 19.0998L7 18.6998L7.8 17.9998H11.7C12.6 17.9998 13.5 17.5998 14.2 16.8998L19.4 11.3998C20.2 10.4998 20.1 9.09983 19.1 8.39983ZM4.8 19.5998L1.4 12.9998L2.5 12.4998L5.9 19.0998L4.8 19.5998ZM18.5 10.5998L13.3 16.0998C12.9 16.5998 12.3 16.7998 11.7 16.7998H7.7C7.6 16.7998 7.5 16.7998 7.4 16.8998L6.5 17.4998L4 12.9998L6 11.5998H11C11.5 11.5998 11.9 11.9998 11.9 12.4998C11.9 12.9998 11.5 13.3998 11 13.3998H7.6C7.3 13.3998 7 13.6998 7 13.9998C7 14.2998 7.3 14.5998 7.6 14.5998H11C11.6 14.5998 12.1 14.3998 12.5 13.9998L17.3 9.49983C17.6 9.19983 18.1 9.19983 18.5 9.39983C18.8 9.59983 18.9 10.1998 18.5 10.5998Z" fill="#7A7C7D"/>
<path d="M8.2 7.69993C9.3 8.59993 10.3 9.19993 10.3 9.19993C10.5 9.29993 10.7 9.29993 10.9 9.19993C10.9 9.19993 12 8.59993 13 7.69993C14.5 6.39993 15.3 5.19993 15.3 3.99993C15.3 1.49993 12.3 0.0999343 10.6 1.79993C8.9 -6.56247e-05 5.9 1.39993 5.9 3.89993C5.9 5.09993 6.7 6.39993 8.2 7.69993ZM8.7 2.19993C9.2 2.19993 9.7 2.49993 10 3.09993C10.2 3.49993 10.8 3.49993 11 3.09993C11.4 2.39993 12 2.09993 12.7 2.29993C13.3 2.49993 14 3.09993 14 3.99993C14 5.59993 11.7 7.29993 10.5 7.99993C9.2 7.19993 7 5.49993 7 3.99993C7.1 2.79993 8 2.19993 8.7 2.19993Z" fill="#7A7C7D"/>
</svg>
