<svg width="21" height="20" viewBox="0 0 21 20" fill="none" xmlns="http://www.w3.org/2000/svg">
<path d="M19.525 8.7L11.325 0.5C11.025 0.2 10.525 0 10.025 0C9.525 0 9.025 0.2 8.725 0.5L0.525 8.7C-0.175 9.4 -0.175 10.6 0.525 11.3C0.825 11.6 1.325 11.8 1.725 11.8C1.725 11.8 1.725 11.8 1.825 11.8H2.125V17.8C2.125 19 3.125 20 4.325 20H7.525C7.825 20 8.125 19.7 8.125 19.4V14.7C8.125 14.2 8.525 13.7 9.125 13.7H11.025C11.525 13.7 12.025 14.1 12.025 14.7V19.4C12.025 19.7 12.325 20 12.625 20H15.825C17.025 20 18.025 19 18.025 17.8V11.8H18.325C18.825 11.8 19.325 11.6 19.625 11.3C20.225 10.6 20.225 9.4 19.525 8.7ZM18.625 10.5C18.525 10.6 18.325 10.7 18.125 10.7H17.225C16.925 10.7 16.625 11 16.625 11.3V17.9C16.625 18.4 16.225 18.9 15.625 18.9H13.025V14.8C13.025 13.6 12.025 12.6 10.825 12.6H9.125C7.925 12.6 6.925 13.6 6.925 14.8V18.9H4.325C3.825 18.9 3.325 18.5 3.325 17.9V11.3C3.325 11 3.025 10.7 2.725 10.7H1.925C1.725 10.7 1.625 10.6 1.425 10.5C1.125 10.2 1.125 9.8 1.425 9.6L9.625 1.4C9.725 1.2 9.825 1.2 10.025 1.2C10.225 1.2 10.325 1.3 10.525 1.4L18.725 9.6C18.925 9.8 18.925 10.2 18.625 10.5Z" fill="#7A7C7D"/>
</svg>
