<svg width="20" height="20" viewBox="0 0 20 20" fill="none" xmlns="http://www.w3.org/2000/svg">
<path d="M10.0004 2.27582C9.70039 2.27582 9.40039 2.57582 9.40039 2.87582C9.40039 3.17582 9.70039 3.47582 10.0004 3.47582C11.9004 3.47582 13.5004 5.07582 13.5004 6.97582C13.5004 7.27582 13.8004 7.57582 14.1004 7.57582C14.4004 7.57582 14.7004 7.27582 14.7004 6.97582C14.7004 4.37582 12.6004 2.27582 10.0004 2.27582Z" fill="#005EB8"/>
<path d="M8.50003 0.175805C5.80003 0.675804 3.70003 2.7758 3.10003 5.4758C2.70003 7.6758 3.20003 9.9758 4.70003 11.6758C5.40003 12.4758 5.90003 13.5758 5.90003 14.6758V15.8758C5.90003 16.6758 6.40003 17.2758 7.10003 17.5758C7.30003 18.8758 8.50003 19.9758 10 19.9758C11.5 19.9758 12.7 18.8758 12.9 17.4758C13.6 17.2758 14.1 16.5758 14.1 15.7758V14.5758C14.1 13.4758 14.5 12.3758 15.3 11.5758C16.4 10.3758 17 8.6758 17 6.9758C17 2.5758 13 -0.824196 8.50003 0.175805ZM10 18.7758C9.20003 18.7758 8.60003 18.2758 8.30003 17.5758H11.6C11.4 18.2758 10.8 18.7758 10 18.7758ZM12.9 15.8758C12.9 16.1758 12.6 16.4758 12.3 16.4758H7.70003C7.40003 16.4758 7.10003 16.1758 7.10003 15.8758V15.2758H13V15.8758H12.9ZM14.4 10.8758C13.6 11.7758 13.1 12.9758 13 14.0758H7.00003C6.90003 12.8758 6.40003 11.7758 5.60003 10.8758C4.40003 9.4758 3.90003 7.5758 4.30003 5.6758C4.80003 3.4758 6.60003 1.6758 8.80003 1.2758C12.6 0.475805 15.9 3.2758 15.9 6.9758C15.9 8.3758 15.3 9.7758 14.4 10.8758Z" fill="#005EB8"/>
<path d="M1.8 6.97583H0.6C0.3 6.97583 0 7.27583 0 7.57583C0 7.87583 0.3 8.17583 0.6 8.17583H1.8C2.1 8.17583 2.4 7.87583 2.4 7.57583C2.4 7.27583 2.1 6.97583 1.8 6.97583Z" fill="#005EB8"/>
<path d="M1.99969 4.07578L1.19969 3.27578C0.899691 2.97578 0.599691 2.97578 0.299691 3.27578C-0.000309348 3.57578 0.0996907 3.87578 0.299691 4.07578L1.09969 4.87578C1.29969 5.07578 1.69969 5.07578 1.89969 4.87578C2.19969 4.67578 2.19969 4.27578 1.99969 4.07578Z" fill="#005EB8"/>
<path d="M2 10.2758C1.8 10.0758 1.4 10.0758 1.2 10.2758L0.4 11.0758C0.2 11.2758 0.2 11.6758 0.4 11.8758C0.6 12.0758 1 12.0758 1.2 11.8758L2 11.0758C2.2 10.8758 2.2 10.4758 2 10.2758Z" fill="#005EB8"/>
<path d="M19.3996 6.97583H18.1996C17.8996 6.97583 17.5996 7.27583 17.5996 7.57583C17.5996 7.87583 17.8996 8.17583 18.1996 8.17583H19.3996C19.6996 8.17583 19.9996 7.87583 19.9996 7.57583C19.9996 7.27583 19.6996 6.97583 19.3996 6.97583Z" fill="#005EB8"/>
<path d="M19.6996 3.27579C19.4996 3.07579 19.0996 3.07579 18.8996 3.27579L17.9996 4.07579C17.7996 4.27579 17.7996 4.67579 17.9996 4.87579C18.1996 5.07579 18.5996 5.07579 18.7996 4.87579L19.5996 4.07579C19.8996 3.87579 19.8996 3.47579 19.6996 3.27579Z" fill="#005EB8"/>
<path d="M19.7002 11.0758L18.9002 10.2758C18.7002 10.0758 18.3002 10.0758 18.1002 10.2758C17.9002 10.4758 17.9002 10.8758 18.1002 11.0758L18.9002 11.8758C19.1002 12.0758 19.5002 12.0758 19.7002 11.8758C19.9002 11.6758 19.9002 11.3758 19.7002 11.0758Z" fill="#005EB8"/>
</svg>
