<svg width="20" height="20" viewBox="0 0 20 20" fill="none" xmlns="http://www.w3.org/2000/svg">
<path d="M10 2.29993C9.7 2.29993 9.4 2.59993 9.4 2.89993C9.4 3.19993 9.7 3.49993 10 3.49993C11.9 3.49993 13.5 5.09993 13.5 6.99993C13.5 7.29993 13.8 7.59993 14.1 7.59993C14.4 7.59993 14.7 7.29993 14.7 6.99993C14.7 4.39993 12.6 2.29993 10 2.29993Z" fill="#7A7C7D"/>
<path d="M8.5 0.199974C5.8 0.699974 3.7 2.79997 3.1 5.49997C2.7 7.69997 3.2 9.99997 4.7 11.7C5.4 12.5 5.9 13.6 5.9 14.7V15.9C5.9 16.7 6.4 17.3 7.1 17.6C7.3 18.9 8.5 20 10 20C11.5 20 12.7 18.9 12.9 17.5C13.6 17.3 14.1 16.6 14.1 15.8V14.6C14.1 13.5 14.5 12.4 15.3 11.6C16.4 10.4 17 8.69997 17 6.99997C17 2.59997 13 -0.800026 8.5 0.199974ZM10 18.8C9.2 18.8 8.6 18.3 8.3 17.6H11.6C11.4 18.3 10.8 18.8 10 18.8ZM12.9 15.9C12.9 16.2 12.6 16.5 12.3 16.5H7.7C7.4 16.5 7.1 16.2 7.1 15.9V15.3H13V15.9H12.9ZM14.4 10.9C13.6 11.8 13.1 13 13 14.1H7C6.9 12.9 6.4 11.8 5.6 10.9C4.4 9.49997 3.9 7.59997 4.3 5.69997C4.8 3.49997 6.6 1.69997 8.8 1.29997C12.6 0.499974 15.9 3.29997 15.9 6.99997C15.9 8.39997 15.3 9.79997 14.4 10.9Z" fill="#7A7C7D"/>
<path d="M1.8 7H0.6C0.3 7 0 7.3 0 7.6C0 7.9 0.3 8.2 0.6 8.2H1.8C2.1 8.2 2.4 7.9 2.4 7.6C2.4 7.3 2.1 7 1.8 7Z" fill="#7A7C7D"/>
<path d="M2 4.09995L1.2 3.29995C0.9 2.99995 0.6 2.99995 0.3 3.29995C-3.57628e-07 3.59995 0.0999997 3.89995 0.3 4.09995L1.1 4.89995C1.3 5.09995 1.7 5.09995 1.9 4.89995C2.2 4.69995 2.2 4.29995 2 4.09995Z" fill="#7A7C7D"/>
<path d="M2 10.3C1.8 10.1 1.4 10.1 1.2 10.3L0.4 11.1C0.2 11.3 0.2 11.7 0.4 11.9C0.6 12.1 1 12.1 1.2 11.9L2 11.1C2.2 10.9 2.2 10.5 2 10.3Z" fill="#7A7C7D"/>
<path d="M19.4 7H18.2C17.9 7 17.6 7.3 17.6 7.6C17.6 7.9 17.9 8.2 18.2 8.2H19.4C19.7 8.2 20 7.9 20 7.6C20 7.3 19.7 7 19.4 7Z" fill="#7A7C7D"/>
<path d="M19.7 3.30002C19.5 3.10002 19.1 3.10002 18.9 3.30002L18 4.10002C17.8 4.30002 17.8 4.70002 18 4.90002C18.2 5.10002 18.6 5.10002 18.8 4.90002L19.6 4.10002C19.9 3.90002 19.9 3.50002 19.7 3.30002Z" fill="#7A7C7D"/>
<path d="M19.7 11.1L18.9 10.3C18.7 10.1 18.3 10.1 18.1 10.3C17.9 10.5 17.9 10.9 18.1 11.1L18.9 11.9C19.1 12.1 19.5 12.1 19.7 11.9C19.9 11.7 19.9 11.4 19.7 11.1Z" fill="#7A7C7D"/>
</svg>
