<svg width="17" height="21" viewBox="0 0 17 21" fill="none" xmlns="http://www.w3.org/2000/svg">
<path d="M14.127 7.10001L13.427 5.00001C13.427 4.90001 13.227 4.70001 13.127 4.70001C13.027 4.60001 12.827 4.60001 12.727 4.70001C12.227 4.90001 11.727 4.80001 11.327 4.50001C11.327 4.50001 11.327 4.50001 11.227 4.50001C10.827 4.20001 10.627 3.80001 10.627 3.30001C10.627 3.00001 10.327 2.70001 10.027 2.70001H7.82695C7.52695 2.70001 7.22695 3.00001 7.22695 3.30001C7.22695 3.80001 7.02695 4.20001 6.62695 4.50001C6.62695 4.50001 6.62695 4.50001 6.52695 4.50001C6.12695 4.70001 5.62695 4.80001 5.12695 4.60001C5.02695 4.60001 4.82695 4.60001 4.72695 4.60001C4.52695 4.70001 4.42695 4.80001 4.42695 5.00001L3.72695 7.10001C3.62695 7.40001 3.72695 7.80001 4.02695 7.90001C4.52695 8.10001 4.82695 8.40001 5.02695 8.90001C5.02695 8.90001 5.02695 8.90001 5.02695 9.00001C5.22695 9.50001 5.12695 10 4.82695 10.4C4.72695 10.5 4.72695 10.7 4.72695 10.8C4.72695 11 4.82695 11.1 4.92695 11.2L6.72695 12.5C7.02695 12.7 7.32695 12.6 7.52695 12.4C7.82695 12 8.22695 11.8 8.72695 11.8C9.22695 11.8 9.62695 12 9.92695 12.4C10.027 12.6 10.227 12.6 10.427 12.6C10.527 12.6 10.627 12.6 10.727 12.5L12.527 11.2C12.627 11.1 12.727 11 12.727 10.8C12.727 10.6 12.727 10.5 12.627 10.4C12.327 10 12.227 9.50001 12.427 9.00001C12.427 9.00001 12.427 9.00001 12.427 8.90001C12.527 8.40001 12.927 8.10001 13.427 7.90001C14.127 7.80001 14.227 7.40001 14.127 7.10001ZM11.627 8.50001C11.427 9.20001 11.427 9.90001 11.727 10.5L10.827 11.2C10.327 10.8 9.72695 10.5 9.02695 10.5C8.32695 10.5 7.72695 10.8 7.22695 11.2L6.32695 10.5C6.62695 9.90001 6.62695 9.20001 6.42695 8.50001C6.02695 7.80001 5.52695 7.30001 4.92695 7.00001L5.32695 5.90001C6.02695 5.90001 6.72695 5.80001 7.22695 5.30001C7.82695 4.90001 8.12695 4.30001 8.32695 3.70001H9.52695C9.62695 4.40001 10.027 4.90001 10.627 5.30001C11.227 5.70001 11.827 5.90001 12.527 5.80001L12.927 7.00001C12.327 7.30001 11.827 7.80001 11.627 8.50001Z" fill="#005EB8"/>
<path d="M8.92539 5.70001C7.82539 5.70001 7.02539 6.60001 7.02539 7.60001C7.02539 8.60001 7.92539 9.50001 8.92539 9.50001C9.92539 9.50001 10.8254 8.60001 10.8254 7.60001C10.8254 6.60001 10.0254 5.70001 8.92539 5.70001ZM8.92539 8.40001C8.52539 8.40001 8.12539 8.10001 8.12539 7.60001C8.12539 7.10001 8.42539 6.80001 8.92539 6.80001C9.42539 6.80001 9.72539 7.10001 9.72539 7.60001C9.72539 8.10001 9.32539 8.40001 8.92539 8.40001Z" fill="#005EB8"/>
<path d="M9.02601 0C4.72601 0 1.22601 3.5 1.22601 7.8V8.8L0.026013 12.7C-0.073987 13 0.126013 13.3 0.426013 13.4L2.42601 14.1V16.9C2.42601 17.2 2.72601 17.5 3.02601 17.5H6.02601V19.5C6.02601 19.8 6.32601 20.1 6.62601 20.1H13.726C14.026 20.1 14.326 19.8 14.326 19.5V13.6C15.926 12.1 16.826 10 16.826 7.9C16.826 3.5 13.326 0 9.02601 0ZM13.326 12.8C13.226 12.9 13.126 13.1 13.126 13.2V18.8H7.12601V16.8C7.12601 16.5 6.82601 16.2 6.52601 16.2H3.52601V13.6C3.52601 13.4 3.32601 13.1 3.12601 13L1.32601 12.4L2.32601 9C2.32601 8.9 2.32601 8.9 2.32601 8.8V7.8C2.32601 4.1 5.32601 1.2 8.92601 1.2C12.526 1.2 15.526 4.2 15.526 7.8C15.626 9.7 14.826 11.6 13.326 12.8Z" fill="#005EB8"/>
</svg>
