<svg width="17" height="21" viewBox="0 0 17 21" fill="none" xmlns="http://www.w3.org/2000/svg">
<path d="M14.126 7.09995L13.426 4.99995C13.426 4.89995 13.226 4.69995 13.126 4.69995C13.026 4.59995 12.826 4.59995 12.726 4.69995C12.226 4.89995 11.726 4.79995 11.326 4.49995C11.326 4.49995 11.326 4.49995 11.226 4.49995C10.826 4.19995 10.626 3.79995 10.626 3.29995C10.626 2.99995 10.326 2.69995 10.026 2.69995H7.82601C7.52602 2.69995 7.22601 2.99995 7.22601 3.29995C7.22601 3.79995 7.02601 4.19995 6.62601 4.49995C6.62601 4.49995 6.62601 4.49995 6.52601 4.49995C6.12601 4.69995 5.62601 4.79995 5.12601 4.59995C5.02601 4.59995 4.82601 4.59995 4.72601 4.59995C4.52601 4.69995 4.42601 4.79995 4.42601 4.99995L3.72601 7.09995C3.62601 7.39995 3.72601 7.79995 4.02601 7.89995C4.52601 8.09995 4.82601 8.39995 5.02601 8.89995C5.02601 8.89995 5.02601 8.89995 5.02601 8.99995C5.22601 9.49995 5.12601 9.99995 4.82601 10.4C4.72601 10.5 4.72601 10.7 4.72601 10.8C4.72601 11 4.82601 11.1 4.92601 11.2L6.72601 12.5C7.02601 12.7 7.32601 12.6 7.52601 12.4C7.82601 12 8.22601 11.8 8.72601 11.8C9.22601 11.8 9.62601 12 9.92601 12.4C10.026 12.6 10.226 12.6 10.426 12.6C10.526 12.6 10.626 12.6 10.726 12.5L12.526 11.2C12.626 11.1 12.726 11 12.726 10.8C12.726 10.6 12.726 10.5 12.626 10.4C12.326 9.99995 12.226 9.49995 12.426 8.99995C12.426 8.99995 12.426 8.99995 12.426 8.89995C12.526 8.39995 12.926 8.09995 13.426 7.89995C14.126 7.79995 14.226 7.39995 14.126 7.09995ZM11.626 8.49995C11.426 9.19995 11.426 9.89995 11.726 10.5L10.826 11.2C10.326 10.8 9.72601 10.5 9.02601 10.5C8.32601 10.5 7.72601 10.8 7.22601 11.2L6.32601 10.5C6.62601 9.89995 6.62601 9.19995 6.42601 8.49995C6.02601 7.79995 5.52601 7.29995 4.92601 6.99995L5.32601 5.89995C6.02601 5.89995 6.72601 5.79995 7.22601 5.29995C7.82601 4.89995 8.12602 4.29995 8.32601 3.69995H9.52601C9.62601 4.39995 10.026 4.89995 10.626 5.29995C11.226 5.69995 11.826 5.89995 12.526 5.79995L12.926 6.99995C12.326 7.29995 11.826 7.79995 11.626 8.49995Z" fill="#7A7C7D"/>
<path d="M8.92601 5.69995C7.82601 5.69995 7.02601 6.59995 7.02601 7.59995C7.02601 8.59995 7.92601 9.49995 8.92601 9.49995C9.92601 9.49995 10.826 8.59995 10.826 7.59995C10.826 6.59995 10.026 5.69995 8.92601 5.69995ZM8.92601 8.39995C8.52601 8.39995 8.12601 8.09995 8.12601 7.59995C8.12601 7.09995 8.42601 6.79995 8.92601 6.79995C9.42601 6.79995 9.72601 7.09995 9.72601 7.59995C9.72601 8.09995 9.32601 8.39995 8.92601 8.39995Z" fill="#7A7C7D"/>
<path d="M9.02601 0C4.72601 0 1.22601 3.5 1.22601 7.8V8.8L0.026013 12.7C-0.073987 13 0.126013 13.3 0.426013 13.4L2.42601 14.1V16.9C2.42601 17.2 2.72601 17.5 3.02601 17.5H6.02601V19.5C6.02601 19.8 6.32601 20.1 6.62601 20.1H13.726C14.026 20.1 14.326 19.8 14.326 19.5V13.6C15.926 12.1 16.826 10 16.826 7.9C16.826 3.5 13.326 0 9.02601 0ZM13.326 12.8C13.226 12.9 13.126 13.1 13.126 13.2V18.8H7.12601V16.8C7.12601 16.5 6.82601 16.2 6.52601 16.2H3.52601V13.6C3.52601 13.4 3.32601 13.1 3.12601 13L1.32601 12.4L2.32601 9C2.32601 8.9 2.32601 8.9 2.32601 8.8V7.8C2.32601 4.1 5.32601 1.2 8.92601 1.2C12.526 1.2 15.526 4.2 15.526 7.8C15.626 9.7 14.826 11.6 13.326 12.8Z" fill="#7A7C7D"/>
</svg>
