<svg width="21" height="19" viewBox="0 0 21 19" fill="none" xmlns="http://www.w3.org/2000/svg">
<path d="M14.7775 18.3001C14.5775 18.3001 14.4775 18.3001 14.2775 18.2001L1.37749 14.8001C0.377492 14.5001 -0.222508 13.5001 0.0774923 12.5001L1.47749 7.10009C1.57749 6.80009 1.87749 6.60009 2.27749 6.70009C2.57749 6.80009 2.77749 7.10009 2.67749 7.50009L1.27749 12.9001C1.17749 13.2001 1.37749 13.6001 1.67749 13.7001L14.5775 17.1001C14.8775 17.2001 15.2775 17.0001 15.3775 16.7001L15.7775 14.9001C15.8775 14.6001 16.1775 14.4001 16.5775 14.4001C16.8775 14.5001 17.0775 14.8001 17.0775 15.2001L16.6775 17.0001C16.2775 17.8001 15.5775 18.3001 14.7775 18.3001Z" fill="#7A7C7D"/>
<path d="M18.0775 13.3H5.17749C4.17749 13.3 3.27749 12.5 3.27749 11.4V1.9C3.27749 0.9 4.07749 0 5.17749 0H18.0775C19.0775 0 19.9775 0.8 19.9775 1.9V11.5C19.9775 12.5 19.1775 13.3 18.0775 13.3ZM5.17749 1.3C4.87749 1.3 4.57749 1.6 4.57749 1.9V11.5C4.57749 11.8 4.87749 12.1 5.17749 12.1H18.0775C18.3775 12.1 18.6775 11.8 18.6775 11.5V1.9C18.6775 1.6 18.3775 1.3 18.0775 1.3H5.17749Z" fill="#7A7C7D"/>
<path d="M7.47749 5.7999C6.57749 5.7999 5.77749 5.0999 5.77749 4.0999C5.77749 3.0999 6.47749 2.3999 7.47749 2.3999C8.37749 2.3999 9.17749 3.0999 9.17749 4.0999C9.17749 5.0999 8.37749 5.7999 7.47749 5.7999ZM7.47749 3.7999C7.27749 3.7999 7.07749 3.9999 7.07749 4.1999C7.07749 4.3999 7.27749 4.5999 7.47749 4.5999C7.67749 4.5999 7.87749 4.3999 7.87749 4.1999C7.87749 3.9999 7.67749 3.7999 7.47749 3.7999Z" fill="#7A7C7D"/>
<path d="M3.97749 12.4999C3.77749 12.4999 3.67749 12.3999 3.57749 12.2999C3.37749 12.0999 3.37749 11.6999 3.57749 11.3999L7.37749 7.5999C7.97749 6.9999 8.87749 6.9999 9.47749 7.5999L10.4775 8.5999L13.5775 4.8999C13.8775 4.5999 14.2775 4.3999 14.6775 4.3999C15.1775 4.3999 15.4775 4.5999 15.7775 4.8999L19.8775 9.6999C20.0775 9.9999 20.0775 10.3999 19.7775 10.5999C19.4775 10.7999 19.0775 10.7999 18.8775 10.4999L14.6775 5.6999C14.5775 5.5999 14.5775 5.5999 14.4775 5.5999C14.4775 5.5999 14.3775 5.5999 14.2775 5.6999L10.8775 9.9999C10.7775 10.0999 10.5775 10.1999 10.3775 10.1999C10.1775 10.1999 10.0775 10.0999 9.87749 9.9999L8.47749 8.4999C8.37749 8.3999 8.27749 8.3999 8.17749 8.4999L4.37749 12.2999C4.27749 12.3999 4.07749 12.4999 3.97749 12.4999Z" fill="#7A7C7D"/>
</svg>
