<svg width="21" height="19" viewBox="0 0 21 19" fill="none" xmlns="http://www.w3.org/2000/svg">
<path d="M14.7775 18.3C14.5775 18.3 14.4775 18.3 14.2775 18.2L1.37749 14.8C0.377492 14.5 -0.222508 13.5 0.0774923 12.5L1.47749 7.10002C1.57749 6.80002 1.87749 6.60002 2.27749 6.70002C2.57749 6.80002 2.77749 7.10002 2.67749 7.50002L1.27749 12.9C1.17749 13.2 1.37749 13.6 1.67749 13.7L14.5775 17.1C14.8775 17.2 15.2775 17 15.3775 16.7L15.7775 14.9C15.8775 14.6 16.1775 14.4 16.5775 14.4C16.8775 14.5 17.0775 14.8 17.0775 15.2L16.6775 17C16.2775 17.8 15.5775 18.3 14.7775 18.3Z" fill="#005EB8"/>
<path d="M18.0773 13.3H5.17734C4.17734 13.3 3.27734 12.5 3.27734 11.4V1.9C3.27734 0.9 4.07734 0 5.17734 0H18.0773C19.0773 0 19.9773 0.8 19.9773 1.9V11.5C19.9773 12.5 19.1773 13.3 18.0773 13.3ZM5.17734 1.3C4.87734 1.3 4.57734 1.6 4.57734 1.9V11.5C4.57734 11.8 4.87734 12.1 5.17734 12.1H18.0773C18.3773 12.1 18.6773 11.8 18.6773 11.5V1.9C18.6773 1.6 18.3773 1.3 18.0773 1.3H5.17734Z" fill="#005EB8"/>
<path d="M7.47734 5.80002C6.57734 5.80002 5.77734 5.10002 5.77734 4.10002C5.77734 3.10002 6.47734 2.40002 7.47734 2.40002C8.37734 2.40002 9.17734 3.10002 9.17734 4.10002C9.17734 5.10002 8.37734 5.80002 7.47734 5.80002ZM7.47734 3.80002C7.27734 3.80002 7.07734 4.00002 7.07734 4.20002C7.07734 4.40002 7.27734 4.60002 7.47734 4.60002C7.67734 4.60002 7.87734 4.40002 7.87734 4.20002C7.87734 4.00002 7.67734 3.80002 7.47734 3.80002Z" fill="#005EB8"/>
<path d="M3.97773 12.5C3.77773 12.5 3.67773 12.4 3.57773 12.3C3.37773 12.1 3.37773 11.7 3.57773 11.4L7.37773 7.60002C7.97773 7.00002 8.87773 7.00002 9.47773 7.60002L10.4777 8.60002L13.5777 4.90002C13.8777 4.60002 14.2777 4.40002 14.6777 4.40002C15.1777 4.40002 15.4777 4.60002 15.7777 4.90002L19.8777 9.70002C20.0777 10 20.0777 10.4 19.7777 10.6C19.4777 10.8 19.0777 10.8 18.8777 10.5L14.6777 5.70002C14.5777 5.60002 14.5777 5.60002 14.4777 5.60002C14.4777 5.60002 14.3777 5.60002 14.2777 5.70002L10.8777 10C10.7777 10.1 10.5777 10.2 10.3777 10.2C10.1777 10.2 10.0777 10.1 9.87773 10L8.47773 8.50002C8.37773 8.40002 8.27773 8.40002 8.17773 8.50002L4.37773 12.3C4.27773 12.4 4.07773 12.5 3.97773 12.5Z" fill="#005EB8"/>
</svg>
