<svg width="18" height="20" viewBox="0 0 18 20" fill="none" xmlns="http://www.w3.org/2000/svg">
<path d="M8.7998 10C5.9998 10 3.7998 7.8 3.7998 5C3.7998 2.2 5.9998 0 8.7998 0C11.5998 0 13.7998 2.2 13.7998 5C13.7998 7.8 11.4998 10 8.7998 10ZM8.7998 1.3C6.6998 1.3 4.9998 2.9 4.9998 5C4.9998 7.1 6.6998 8.8 8.7998 8.8C10.8998 8.8 12.5998 7.1 12.5998 5C12.5998 2.9 10.7998 1.3 8.7998 1.3Z" fill="#005EB8"/>
<path d="M16.9 20H0.6C0.3 20 0 19.7 0 19.4V15.1C0 14.5 0.3 13.8 0.9 13.5C5.6 10.6 12 10.6 16.7 13.5C17.2 13.8 17.6 14.4 17.6 15.1V19.4C17.5 19.7 17.2 20 16.9 20ZM1.3 18.8H16.3V15.1C16.3 14.9 16.2 14.7 16 14.6C11.7 11.9 5.8 11.9 1.5 14.6C1.3 14.7 1.2 14.9 1.2 15.1L1.3 18.8Z" fill="#005EB8"/>
</svg>
