<svg width="18" height="20" viewBox="0 0 18 20" fill="none" xmlns="http://www.w3.org/2000/svg">
<path d="M8.8 10C6 10 3.8 7.8 3.8 5C3.8 2.2 6 0 8.8 0C11.6 0 13.8 2.2 13.8 5C13.8 7.8 11.5 10 8.8 10ZM8.8 1.3C6.7 1.3 5 2.9 5 5C5 7.1 6.7 8.8 8.8 8.8C10.9 8.8 12.6 7.1 12.6 5C12.6 2.9 10.8 1.3 8.8 1.3Z" fill="#7A7C7D"/>
<path d="M16.9 20H0.6C0.3 20 0 19.7 0 19.4V15.1C0 14.5 0.3 13.8 0.9 13.5C5.6 10.6 12 10.6 16.7 13.5C17.2 13.8 17.6 14.4 17.6 15.1V19.4C17.5 19.7 17.2 20 16.9 20ZM1.3 18.8H16.3V15.1C16.3 14.9 16.2 14.7 16 14.6C11.7 11.9 5.8 11.9 1.5 14.6C1.3 14.7 1.2 14.9 1.2 15.1L1.3 18.8Z" fill="#7A7C7D"/>
</svg>
