<svg width="20" height="16" viewBox="0 0 20 16" fill="none" xmlns="http://www.w3.org/2000/svg">
<path d="M19.8 11.2C19.8 11.2 19.2 10.6 18.2 10.1C19.8 7.6 20 4.7 20 4.5C20 4.3 19.9 4.2 19.8 4.1C19.7 4 19.5 3.9 19.4 3.9C19.3 3.9 18 4 16.4 4.5C16.2 2.6 15.6 1.1 15.6 1.1C15.5 0.9 15.4 0.8 15.3 0.8C15.1 0.7 15 0.8 14.8 0.8C14.7 0.8 13.5 1.5 12.2 2.8C11.4 1.3 10.6 0.3 10.5 0.3C10.3 0.1 10.2 0 10 0C9.8 0 9.7 0.1 9.6 0.2C9.5 0.3 8.7 1.2 7.9 2.7C6.6 1.4 5.4 0.8 5.3 0.7C5.2 0.6 5 0.6 4.8 0.7C4.6 0.8 4.5 0.9 4.4 1.1C4.4 1.2 3.8 2.6 3.6 4.5C2 4 0.7 3.9 0.6 3.9C0.4 3.9 0.3 4 0.2 4.1C0.1 4.2 0 4.3 0 4.5C0 4.6 0.2 7.6 1.8 10.1C0.9 10.6 0.3 11.2 0.2 11.2C0 11.4 0 11.7 0.1 11.9C0.2 12 2 15.2 4.8 15.7C5 15.7 5.3 15.8 5.6 15.8C6.2 15.8 6.9 15.7 7.6 15.4C8.2 15.2 8.8 14.9 9.5 14.5C9.8 14.5 9.9 14.5 10 14.5C10 14.5 10.2 14.5 10.5 14.5C11.1 14.9 11.7 15.2 12.4 15.4C13.1 15.7 13.8 15.8 14.4 15.8C14.7 15.8 14.9 15.8 15.2 15.7C18.1 15.2 19.9 12.1 19.9 11.9C20 11.7 20 11.4 19.8 11.2ZM16.2 10.7C14.7 12.2 12.6 12.8 11.3 13.1C12.1 11.9 13.2 9.9 13.3 7.5C15.1 5.8 17.6 5.3 18.7 5.1C18.6 6.4 18 8.9 16.2 10.7ZM14.7 2.2C14.9 2.8 15.1 3.8 15.2 5C14.5 5.3 13.9 5.7 13.2 6.2C13.1 5.4 12.9 4.7 12.6 4C13.4 3.1 14.2 2.5 14.7 2.2ZM10 1.5C10.7 2.5 12.1 4.7 12.1 7.2C12.1 9.7 10.7 11.9 10 12.9C9.3 11.9 7.9 9.7 7.9 7.2C7.9 4.7 9.3 2.5 10 1.5ZM5.3 2.2C5.8 2.5 6.6 3.1 7.3 3.9C7.1 4.6 6.9 5.3 6.8 6.1C6.2 5.6 5.5 5.2 4.8 4.9C4.9 3.8 5.1 2.8 5.3 2.2ZM6.7 7.6C6.8 9.9 7.9 12 8.7 13.2C7.4 12.9 5.3 12.3 3.8 10.8C2 8.9 1.4 6.4 1.2 5.1C2.4 5.3 4.9 5.9 6.7 7.6ZM5 14.6C3.2 14.3 1.9 12.6 1.4 11.8C1.7 11.6 2.1 11.3 2.5 11.1C2.6 11.3 2.8 11.4 2.9 11.6C4.4 13.1 6.2 13.8 7.6 14.2C6.9 14.5 6 14.7 5 14.6ZM15 14.6C14.1 14.8 13.1 14.5 12.3 14.1C13.7 13.7 15.6 13 17 11.5C17.2 11.3 17.3 11.2 17.4 11C17.9 11.3 18.3 11.5 18.5 11.7C18.1 12.6 16.7 14.3 15 14.6Z" fill="#7A7C7D"/>
</svg>
