<svg width="20" height="18" viewBox="0 0 20 18" fill="none" xmlns="http://www.w3.org/2000/svg">
<path d="M10 17.8C9.7 17.8 9.4 17.7 9.2 17.5C8.4 16.8 7.6 16.1 6.9 15.5C4.9 13.8 3.1 12.3 1.9 10.8C0.6 9.3 0 7.7 0 6C0 4.4 0.6 2.8 1.6 1.7C2.6 0.6 4 0 5.6 0C6.8 0 7.8 0.4 8.7 1.1C9.2 1.4 9.6 1.9 10 2.4C10.4 1.9 10.8 1.4 11.3 1.1C12.2 0.4 13.3 0 14.4 0C15.9 0 17.4 0.6 18.4 1.7C19.4 2.9 20 4.4 20 6C20 7.7 19.4 9.2 18 10.9C16.8 12.4 15 13.8 13 15.6C12.3 16.2 11.5 16.9 10.7 17.6C10.6 17.7 10.3 17.8 10 17.8ZM5.6 1.2C4.4 1.2 3.3 1.7 2.5 2.6C1.6 3.4 1.2 4.7 1.2 6C1.2 7.4 1.7 8.7 2.9 10.1C4 11.5 5.7 13 7.7 14.7C8.4 15.3 9.2 16 10 16.7C10.8 16 11.6 15.3 12.3 14.7C14.3 13 16 11.6 17.1 10.2C18.3 8.8 18.8 7.5 18.8 6.1C18.8 4.8 18.3 3.5 17.5 2.6C16.7 1.7 15.6 1.2 14.4 1.2C13.5 1.2 12.7 1.5 12 2C11.4 2.5 10.9 3.1 10.6 3.6C10.5 3.8 10.2 4 10 4C9.8 4 9.5 3.8 9.4 3.6C9.1 3.1 8.7 2.5 8 2C7.3 1.5 6.5 1.2 5.6 1.2Z" fill="#005EB8"/>
</svg>
