<svg width="17" height="20" viewBox="0 0 17 20" fill="none" xmlns="http://www.w3.org/2000/svg">
<path d="M15.6 0H2.2C1 0 0 1 0 2.2V17.8C0 19 1 20 2.2 20H15.6C15.9 20 16.2 19.7 16.2 19.4C16.2 18.8 16.2 11.4 16.2 0.6C16.3 0.3 16 0 15.6 0ZM15 15.6H3.8V1.3H15V15.6ZM1.3 2.2C1.3 1.7 1.7 1.3 2.2 1.3H2.5V15.7C2.2 15.7 1.7 15.7 1.2 15.9V2.2H1.3ZM15 18.8H2.2C1.7 18.8 1.3 18.4 1.3 17.9C1.3 17.4 1.7 17 2.2 17H15V18.8Z" fill="#7A7C7D"/>
<path d="M5.6 8.3998H13.1C13.4 8.3998 13.7 8.0998 13.7 7.7998V3.3998C13.7 3.0998 13.4 2.7998 13.1 2.7998H5.6C5.3 2.7998 5 3.0998 5 3.3998V7.7998C5 8.1998 5.3 8.3998 5.6 8.3998ZM6.3 4.0998H12.6V7.1998H6.3V4.0998Z" fill="#7A7C7D"/>
<path d="M12.8008 12.5H5.90078C5.60078 12.5 5.30078 12.8 5.30078 13.1C5.30078 13.4 5.60078 13.7 5.90078 13.7H12.8008C13.1008 13.7 13.4008 13.4 13.4008 13.1C13.4008 12.8 13.2008 12.5 12.8008 12.5Z" fill="#7A7C7D"/>
</svg>
