<svg width="17" height="20" viewBox="0 0 17 20" fill="none" xmlns="http://www.w3.org/2000/svg">
<path d="M15.3996 10.9998C15.0996 10.6998 14.5996 10.4998 14.0996 10.4998C13.5996 10.4998 13.0996 10.6998 12.7996 10.9998L11.4996 12.2998C11.4996 10.5998 10.0996 9.2998 8.49961 9.2998C6.79961 9.2998 5.49961 10.5998 5.49961 12.2998L4.09961 10.9998C3.79961 10.6998 3.29961 10.4998 2.79961 10.4998C2.29961 10.4998 1.79961 10.6998 1.49961 10.9998C0.799609 11.6998 0.799609 12.8998 1.49961 13.5998L5.39961 17.4998V19.4998C5.39961 19.6998 5.69961 19.9998 5.99961 19.9998H10.9996C11.2996 19.9998 11.5996 19.6998 11.5996 19.3998V17.3998L15.4996 13.4998C16.1996 12.8998 16.1996 11.6998 15.3996 10.9998ZM8.49961 10.4998C9.49961 10.4998 10.2996 11.2998 10.2996 12.2998C10.2996 13.2998 9.49961 14.0998 8.49961 14.0998C7.49961 14.0998 6.69961 13.2998 6.69961 12.2998C6.59961 11.2998 7.49961 10.4998 8.49961 10.4998ZM14.5996 12.7998L10.5996 16.7998C10.4996 16.8998 10.3996 17.0998 10.3996 17.1998V18.7998H6.59961V17.1998C6.59961 16.9998 6.49961 16.8998 6.39961 16.7998L2.39961 12.7998C2.09961 12.4998 2.09961 12.0998 2.39961 11.8998C2.49961 11.7998 2.69961 11.6998 2.89961 11.6998C3.09961 11.6998 3.19961 11.7998 3.39961 11.8998L6.79961 15.2998C6.89961 15.3998 7.09961 15.4998 7.19961 15.4998H9.99961C10.1996 15.4998 10.2996 15.3998 10.3996 15.2998L13.7996 11.8998C13.8996 11.7998 14.0996 11.6998 14.2996 11.6998C14.4996 11.6998 14.5996 11.7998 14.7996 11.8998C14.8996 12.0998 14.8996 12.4998 14.5996 12.7998Z" fill="#7A7C7D"/>
<path d="M5.90017 5.6L5.50017 7.9C5.50017 8.1 5.60017 8.3 5.70017 8.5C5.80017 8.6 5.90017 8.6 6.00017 8.6C6.10017 8.6 6.20017 8.6 6.30017 8.5L8.50017 7.4L10.7002 8.5C10.8002 8.5 10.9002 8.6 11.0002 8.6C11.3002 8.6 11.6002 8.3 11.6002 8V7.9L11.2002 5.5L12.9002 3.8C13.0002 3.7 13.0002 3.5 13.0002 3.3C12.9002 3.1 12.7002 2.9 12.5002 2.9L10.1002 2.5L9.00017 0.3C8.90017 0.1 8.70017 0 8.50017 0C8.30017 0 8.10017 0.1 8.00017 0.3L6.90017 2.5L4.50017 2.9C4.30017 2.9 4.10017 3 4.00017 3.3C3.90017 3.5 4.00017 3.7 4.20017 3.9L5.90017 5.6ZM7.40017 3.6C7.60017 3.6 7.80017 3.5 7.80017 3.3L8.50017 1.9L9.20017 3.3C9.30017 3.5 9.50017 3.6 9.60017 3.6L11.1002 3.8L10.0002 4.9C9.90017 5.1 9.80017 5.3 9.90017 5.4L10.1002 7L8.80017 6.3C8.70017 6.3 8.60017 6.2 8.50017 6.2C8.40017 6.2 8.30017 6.2 8.20017 6.3L6.80017 7L7.10017 5.5C7.10017 5.3 7.10017 5.1 6.90017 5L5.80017 3.8L7.40017 3.6Z" fill="#7A7C7D"/>
</svg>
