<svg width="21" height="20" viewBox="0 0 21 20" fill="none" xmlns="http://www.w3.org/2000/svg">
<path d="M19.7041 9.3999L18.0041 7.8999V2.7999C18.0041 2.4999 17.7041 2.1999 17.4041 2.1999H13.3041C13.0041 2.1999 12.7041 2.4999 12.7041 2.7999V3.0999L10.7041 1.1999C10.3041 0.799902 9.70405 0.799902 9.30405 1.1999L0.304052 9.3999C0.00405183 9.6999 -0.0959482 10.1999 0.104052 10.5999C0.304052 10.9999 0.604052 11.2999 1.10405 11.2999H2.50405V19.4999C2.50405 19.6999 2.70405 19.9999 3.00405 19.9999H8.00405C8.30405 19.9999 8.60405 19.6999 8.60405 19.3999V14.3999H11.5041V19.3999C11.5041 19.6999 11.8041 19.9999 12.1041 19.9999H17.0041C17.3041 19.9999 17.6041 19.6999 17.6041 19.3999V11.1999H19.0041C19.4041 11.1999 19.8041 10.8999 20.0041 10.4999C20.1041 10.1999 20.0041 9.6999 19.7041 9.3999ZM17.0041 10.0999C16.7041 10.0999 16.4041 10.3999 16.4041 10.6999V18.8999H12.7041V13.8999C12.7041 13.5999 12.4041 13.2999 12.1041 13.2999H8.00405C7.70405 13.2999 7.40405 13.5999 7.40405 13.8999V18.8999H3.60405V10.5999C3.60405 10.2999 3.30405 9.9999 3.00405 9.9999H1.40405L10.0041 2.1999L12.9041 4.8999C13.1041 5.0999 13.3041 5.0999 13.5041 4.9999C13.7041 4.8999 13.9041 4.6999 13.9041 4.4999V3.3999H16.8041V8.1999C16.8041 8.3999 16.9041 8.4999 17.0041 8.5999L18.6041 10.0999H17.0041Z" fill="#7A7C7D"/>
</svg>
