<svg width="20" height="18" viewBox="0 0 20 18" fill="none" xmlns="http://www.w3.org/2000/svg">
<path d="M20 7.8C20 6.8 19.1 5.9 18.1 5.9H17.5H14.7C15.2 4.9 15.5 4 15.5 2.8V2.6C15.5 1.9 15.2 1.3 14.8 0.8C14.3 0.3 13.6 0 12.9 0C12.2 0 11.7 0.5 11.6 1.2C11.3 4.3 8.4 5.9 6.4 6.9V6.5C6.4 6.2 6.1 5.9 5.8 5.9H0.6C0.3 5.9 0 6.2 0 6.5V16.9C0 17.2 0.3 17.5 0.6 17.5H4.5C5.2 17.5 5.9 17.1 6.2 16.4C8.4 17.3 10.2 17.5 12.4 17.5C12.8 17.5 13.1 17.5 13.5 17.5C13.9 17.5 14.4 17.5 14.8 17.5H16.7C17.7 17.5 18.6 16.6 18.6 15.6C18.6 15.2 18.5 14.9 18.3 14.6C18.8 14.3 19.2 13.7 19.2 13C19.2 12.6 19.1 12.3 18.9 12C19.4 11.7 19.8 11.1 19.8 10.4C19.8 9.9 19.6 9.5 19.3 9.1C19.8 8.8 20 8.3 20 7.8ZM5.2 15.6C5.2 16 4.9 16.3 4.5 16.3H3.8V14.3C3.8 14 3.5 13.7 3.2 13.7C2.9 13.7 2.6 14 2.6 14.3V16.3H1.2V7.1H5.2V15.6ZM16.8 9.7H17.4H18C18.4 9.7 18.7 10 18.7 10.4C18.7 10.8 18.4 11.1 18 11.1H17.4H16.8C16.5 11.1 16.2 11.4 16.2 11.7C16.2 12 16.5 12.3 16.8 12.3H17.4C17.8 12.3 18.1 12.6 18.1 13C18.1 13.4 17.8 13.7 17.4 13.7H16.8C16.5 13.7 16.2 14 16.2 14.3C16.2 14.6 16.5 14.9 16.8 14.9C17.2 14.9 17.5 15.2 17.5 15.6C17.5 16 17.2 16.3 16.8 16.3H14.9C14.4 16.3 14 16.3 13.6 16.3C10.9 16.3 8.9 16.3 6.5 15.2V8.2C6.6 8.2 6.6 8.1 6.7 8.1C7.8 7.6 9.2 6.9 10.4 5.8C11.9 4.5 12.8 3 12.9 1.2C12.9 1.2 12.9 1.1 13 1.1C13.7 1.1 14.3 1.7 14.3 2.5V2.7C14.3 4 14 4.8 13.3 5.8H12.3C12 5.8 11.7 6.1 11.7 6.4C11.7 6.7 12 7 12.3 7H13.6H17.5H18.1C18.5 7 18.8 7.3 18.8 7.7C18.8 8.1 18.5 8.4 18.1 8.4H17.5H16.9C16.6 8.4 16.3 8.7 16.3 9C16.2 9.4 16.5 9.7 16.8 9.7Z" fill="#7A7C7D"/>
</svg>
