<svg width="16" height="17" viewBox="0 0 16 17" fill="none" xmlns="http://www.w3.org/2000/svg">
<path d="M16 2.1C16 1 15 0 13.9 0H8H2.1C0.9 0 0 1 0 2.1V8C0 8.3 0.3 8.6 0.6 8.6H2.6V8.8C2.6 9.8 3.4 10.6 4.4 10.6C5.4 10.6 6.2 9.8 6.2 8.8V8.6H7.6V10.6C7.6 10.9 7.9 11.2 8.2 11.2H8.9C9.2 11.2 9.5 11.4 9.6 11.8C9.6 12 9.6 12.1 9.4 12.2C9.3 12.3 9.1 12.4 9 12.4H8C7.7 12.4 7.4 12.7 7.4 13V15.5C7.4 15.8 7.7 16.1 8 16.1H13.9C15.1 16.1 16 15.1 16 14V2.1ZM8.6 3.1V1.1H13.9C14.4 1.1 14.9 1.5 14.9 2.1V7.4H13.5V7.2C13.5 6.7 13.3 6.3 13 5.9C12.6 5.6 12.2 5.4 11.7 5.4C10.8 5.4 10 6.2 10 7.2V7.3H8.6V5.3C8.6 5 8.3 4.7 8 4.7H7.3C7 4.7 6.7 4.5 6.6 4.1C6.6 3.9 6.6 3.8 6.8 3.7C6.9 3.6 7.1 3.5 7.2 3.5H8C8.3 3.7 8.6 3.4 8.6 3.1ZM5.5 7.4C5.1 7.4 4.9 7.7 4.9 8V8.8C4.9 9.1 4.6 9.4 4.3 9.4C4 9.4 3.7 9.1 3.7 8.8V8C3.7 7.7 3.4 7.4 3.1 7.4H1.1V2.1C1.1 1.6 1.5 1.1 2.1 1.1H7.4V2.5H7.2C6.7 2.5 6.3 2.7 5.9 3C5.6 3.4 5.4 3.9 5.5 4.4C5.5 5.3 6.3 6.1 7.3 6.1H7.4V7.5H5.5V7.4ZM13.9 14.8H8.6V13.4H8.8C9.3 13.4 9.7 13.2 10.1 12.9C10.4 12.5 10.6 12.1 10.6 11.6C10.6 10.7 9.8 9.9 8.8 9.9H8.7V8.5H10.7C11 8.5 11.3 8.2 11.3 7.9V7.3C11.3 7 11.5 6.7 11.9 6.6C12.1 6.6 12.2 6.6 12.3 6.8C12.4 6.9 12.5 7.1 12.5 7.2V8C12.5 8.3 12.8 8.6 13.1 8.6H15.1V13.9C14.8 14.4 14.4 14.8 13.9 14.8Z" fill="#7A7C7D"/>
</svg>
