<svg width="21" height="21" viewBox="0 0 21 21" fill="none" xmlns="http://www.w3.org/2000/svg">
<path d="M19.4 8.19991C18.2 8.19991 8.3 8.19991 6.1 8.19991L19.6 4.39991C19.9 4.29991 20.1 3.99991 20 3.69991L19.2 1.19991C18.9 0.299912 18 -0.200088 17.1 0.099912C17 0.099912 1.7 4.09991 1.6 4.09991C0.6 4.39991 0.1 5.39991 0.4 6.29991L0.7 7.29991C0.3 7.69991 0 8.19991 0 8.79991C0 9.59991 0.5 10.1999 1.2 10.4999V18.2999C1.2 19.2999 2 20.0999 3 20.0999H18.3C19.3 20.0999 20.1 19.2999 20.1 18.2999V8.79991C20 8.49991 19.7 8.19991 19.4 8.19991ZM16 9.39991L14.4 11.6999H12.3L13.9 9.39991H16ZM12.4 9.39991L10.8 11.6999H8.7L10.3 9.39991H12.4ZM6.8 9.39991H8.9L7.3 11.6999H5.2L6.8 9.39991ZM3.8 11.6999H2.3V10.3999C2.8 10.1999 3.2 9.79991 3.4 9.29991H5.3L3.8 11.6999ZM17.3 1.19991C17.6 1.09991 17.9 1.29991 18 1.59991L18.6 3.49991L17.5 3.79991L15 1.79991L17.3 1.19991ZM13.7 2.19991L16.2 4.19991L13.9 4.79991L11.4 2.79991L13.7 2.19991ZM9.9 3.19991L12.5 5.19991L10.2 5.79991L7.6 3.79991L9.9 3.19991ZM6.2 4.19991L8.8 6.29991L6.5 6.89991L3.8 4.79991L6.2 4.19991ZM1.9 5.29991L2.4 5.19991L5 7.29991L3.2 7.79991C2.9 7.29991 2.4 6.99991 1.8 6.99991L1.5 5.99991C1.4 5.69991 1.6 5.39991 1.9 5.29991ZM1.8 9.39991C1.5 9.39991 1.2 9.09991 1.2 8.79991C1.2 8.49991 1.5 8.19991 1.8 8.19991C2.1 8.19991 2.4 8.49991 2.4 8.79991C2.3 9.09991 2.1 9.39991 1.8 9.39991ZM18.8 18.1999C18.8 18.4999 18.5 18.7999 18.2 18.7999H2.9C2.6 18.7999 2.3 18.4999 2.3 18.1999V12.7999C4 12.7999 16.9 12.7999 18.8 12.7999V18.1999ZM18.8 11.6999H15.8L17.4 9.39991H18.8V11.6999Z" fill="#7A7C7D"/>
</svg>
