<svg width="20" height="20" viewBox="0 0 20 20" fill="none" xmlns="http://www.w3.org/2000/svg">
<path d="M19.7996 4.8998C19.6996 4.7998 19.4996 4.7998 19.2996 4.7998L10.9996 7.0998C10.6996 7.1998 10.5996 7.3998 10.5996 7.6998V15.5998C10.2996 15.3998 9.89961 15.2998 9.39961 15.2998C8.09961 15.2998 7.09961 16.3998 7.09961 17.5998C7.09961 18.7998 8.09961 19.9998 9.39961 19.9998C10.6996 19.9998 11.6996 18.8998 11.6996 17.6998C11.6996 17.5998 11.6996 10.4998 11.6996 10.4998L18.7996 8.4998V13.2998C18.4996 13.0998 18.0996 12.9998 17.5996 12.9998C16.2996 12.9998 15.2996 14.0998 15.2996 15.2998C15.2996 16.5998 16.3996 17.5998 17.5996 17.5998C18.7996 17.5998 19.8996 16.4998 19.8996 15.2998C19.8996 15.1998 19.8996 5.2998 19.8996 5.2998C19.9996 5.1998 19.8996 4.9998 19.7996 4.8998ZM9.39961 18.7998C8.79961 18.7998 8.19961 18.2998 8.19961 17.5998C8.19961 16.8998 8.69961 16.3998 9.39961 16.3998C10.0996 16.3998 10.5996 16.8998 10.5996 17.5998C10.5996 18.2998 9.99961 18.7998 9.39961 18.7998ZM17.6996 16.4998C17.0996 16.4998 16.4996 15.9998 16.4996 15.2998C16.4996 14.6998 16.9996 14.0998 17.6996 14.0998C18.3996 14.0998 18.8996 14.5998 18.8996 15.2998C18.7996 15.9998 18.2996 16.4998 17.6996 16.4998ZM18.7996 7.2998L11.6996 9.2998V8.0998L18.7996 6.0998V7.2998Z" fill="#7A7C7D"/>
<path d="M8.2 4.2C6.9 3.2 5.9 2.3 5.3 1.3L4.6 0.3C4.4 0 4.2 0 3.9 0C3.7 0.1 3.5 0.3 3.5 0.6V9.8C3.2 9.6 2.8 9.5 2.3 9.5C1.1 9.5 0 10.5 0 11.8C0 13.1 1.1 14.1 2.3 14.1C3.5 14.1 4.6 13 4.6 11.8V2.5C5.3 3.4 6.2 4.3 7.4 5.1C7.9 5.4 8.2 6 8.2 6.5C8.2 7.5 7.4 8.3 6.4 8.3C6.1 8.3 5.8 8.6 5.8 8.9C5.8 9.2 6.1 9.5 6.4 9.5C8 9.5 9.3 8.2 9.3 6.6C9.4 5.6 8.9 4.7 8.2 4.2ZM2.3 13C1.7 13 1.1 12.5 1.1 11.8C1.1 11.1 1.6 10.6 2.3 10.6C3 10.6 3.5 11.1 3.5 11.8C3.5 12.5 3 13 2.3 13Z" fill="#7A7C7D"/>
</svg>
