<svg width="20" height="18" viewBox="0 0 20 18" fill="none" xmlns="http://www.w3.org/2000/svg">
<path d="M19.5 8.4C19.8 8 20 7.6 20 7.1C20 6.4 19.6 5.8 19.1 5.5C19.3 5.2 19.4 4.9 19.4 4.5C19.4 3.8 19 3.2 18.5 2.9C18.7 2.6 18.8 2.3 18.8 1.9C18.8 0.9 17.9 0 16.9 0H15C14.5 0 14.1 0 13.7 0C13.3 0 12.9 0 12.6 0C10.4 0 8.6 0.1 6.4 1.1C5.9 0.4 5.2 0 4.5 0H0.6C0.3 0 0 0.3 0 0.6V11C0 11.3 0.3 11.6 0.6 11.6H5.8C6.1 11.6 6.4 11.3 6.4 11V10.7C8.4 11.7 11.4 13.3 11.6 16.4C11.7 17.1 12.2 17.6 12.9 17.6C13.6 17.6 14.2 17.3 14.7 16.8C15.2 16.3 15.4 15.7 15.4 15V14.8C15.4 13.5 15.1 12.6 14.6 11.7H17.4H18C19 11.7 19.9 10.8 19.9 9.8C20 9.2 19.8 8.7 19.5 8.4ZM5.2 1.9V10.4H1.2V1.2H2.6V3.2C2.6 3.5 2.9 3.8 3.2 3.8C3.5 3.8 3.8 3.5 3.8 3.2V1.2H4.5C4.9 1.2 5.2 1.5 5.2 1.9ZM16.2 8.4C16.2 8.7 16.5 9 16.8 9H17.4H18C18.4 9 18.7 9.3 18.7 9.7C18.7 10.1 18.4 10.4 18 10.4H17.4H13.5H12.2C11.9 10.4 11.6 10.7 11.6 11C11.6 11.3 11.9 11.6 12.2 11.6H13.2C13.9 12.7 14.2 13.5 14.2 14.7V14.9C14.2 15.6 13.6 16.2 12.9 16.3C12.9 16.3 12.8 16.3 12.8 16.2C12.7 14.5 11.8 12.9 10.3 11.6C9.1 10.5 7.6 9.8 6.6 9.3C6.5 9.3 6.5 9.2 6.4 9.2V2.2C8.8 1.1 10.8 1.1 13.5 1.1C13.9 1.1 14.4 1.1 14.8 1.1H16.7C17.1 1.1 17.4 1.4 17.4 1.8C17.4 2.2 17.1 2.5 16.7 2.5C16.4 2.5 16.1 2.8 16.1 3.1C16.1 3.4 16.4 3.7 16.7 3.7H17.3C17.7 3.7 18 4 18 4.4C18 4.8 17.7 5.1 17.3 5.1H16.7C16.4 5.1 16.1 5.4 16.1 5.7C16.1 6 16.4 6.3 16.7 6.3H17.3H17.9C18.3 6.3 18.6 6.6 18.6 7C18.6 7.4 18.3 7.7 17.9 7.7H17.3H16.7C16.5 7.8 16.2 8.1 16.2 8.4Z" fill="#7A7C7D"/>
</svg>
