<?xml version="1.0" encoding="utf-8"?>
<!-- Generator: Adobe Illustrator 23.0.0, SVG Export Plug-In . SVG Version: 6.00 Build 0)  -->
<svg version="1.1" id="Layer_1" xmlns="http://www.w3.org/2000/svg" xmlns:xlink="http://www.w3.org/1999/xlink" x="0px" y="0px"
	 viewBox="0 0 500 500" style="enable-background:new 0 0 500 500;" xml:space="preserve">
<style type="text/css">
	.st0{fill:#FFFFFF;}
</style>
<g>
	<path class="st0" d="M440.1,21H59.9C28.4,21,3,46.2,3,77.7v243.8C3,352.9,28.4,378,59.9,378H69v84.3c0,6.7,4,12.8,10.1,15.5
		c2.2,1,4.6,1.5,6.9,1.5c4.1,0,8.2-1.8,11.4-4.6L203.9,378h236.3c31.4,0,56.9-25.1,56.9-56.5V77.7C497,46.2,471.6,21,440.1,21z
		 M463,321.5c0,12.7-10.2,22.5-22.9,22.5H197.3c-4.2,0-8.3,1.8-11.4,4.6L103,424v-62.5c0-9.4-7.6-17.5-17-17.5H59.9
		c-12.7,0-22.9-9.8-22.9-22.5V77.7C37,65,47.2,55,59.9,55h380.3c12.7,0,22.9,10,22.9,22.7L463,321.5L463,321.5z"/>
	<path class="st0" d="M375.6,243H124.4c-9.4,0-17,7.6-17,17s7.6,17,17,17h251.1c9.4,0,17-7.6,17-17S385,243,375.6,243z"/>
	<path class="st0" d="M375.6,177H124.4c-9.4,0-17,7.6-17,17s7.6,17,17,17h251.1c9.4,0,17-7.6,17-17S385,177,375.6,177z"/>
	<path class="st0" d="M124.4,144h95.9c9.4,0,17-7.6,17-17s-7.6-17-17-17h-95.9c-9.4,0-17,7.6-17,17S115,144,124.4,144z"/>
</g>
</svg>
