<svg width="20" height="13" viewBox="0 0 20 13" fill="none" xmlns="http://www.w3.org/2000/svg">
<path d="M19.8749 6.005C19.7081 5.73812 15.4379 0 10 0C4.56214 0 0.29191 5.73812 0.125104 6.005C-0.0417014 6.23853 -0.0417014 6.53878 0.125104 6.77231C0.29191 7.00584 4.56214 12.7773 10 12.7773C15.4379 12.7773 19.7081 7.0392 19.8749 6.77231C20.0417 6.53878 20.0417 6.20517 19.8749 6.005ZM10 11.4429C5.99666 11.4429 2.52711 7.6397 1.49291 6.37198C2.52711 5.13762 5.99666 1.33445 10 1.33445C14.0033 1.33445 17.4729 5.13762 18.5071 6.40534C17.4729 7.6397 14.0033 11.4429 10 11.4429Z" fill="#999999"/>
<path d="M10 2.43536C7.83153 2.43536 6.03003 4.2035 6.03003 6.40534C6.03003 8.60717 7.83153 10.342 10 10.342C12.1685 10.342 13.97 8.57381 13.97 6.37198C13.97 4.17014 12.1685 2.43536 10 2.43536ZM10 9.00751C8.53211 9.00751 7.36447 7.83987 7.36447 6.37198C7.36447 4.90409 8.53211 3.73645 10 3.73645C11.4679 3.73645 12.6355 4.90409 12.6355 6.37198C12.6355 7.83987 11.4679 9.00751 10 9.00751Z" fill="#999999"/>
</svg>
