<svg width="279" height="257" viewBox="0 0 279 257" fill="none" xmlns="http://www.w3.org/2000/svg">
<path d="M74.9932 253.074C45.2963 243.075 19.5989 218.177 14.2995 187.28C9.00001 156.384 28.498 121.587 59.0949 114.888C73.5934 111.688 89.1918 114.588 102.99 109.189C129.088 99.1895 137.887 65.293 161.984 51.0945C185.182 37.4959 216.979 47.2949 234.277 67.8928C251.575 88.4906 256.575 116.988 255.575 143.885C253.975 183.381 237.277 225.977 201.38 242.675C171.183 256.873 107.39 260.873 74.9932 253.074Z" fill="black" fill-opacity="0.06"/>
<path d="M80.7926 227.677H71.8936V256.374H80.7926V227.677Z" fill="#1A2E35"/>
<path d="M173.383 227.677H164.484V256.374H173.383V227.677Z" fill="#1A2E35"/>
<path d="M117.389 227.677H108.49V256.374H117.389V227.677Z" fill="#1A2E35"/>
<path d="M204.88 227.677H195.981V256.374H204.88V227.677Z" fill="#1A2E35"/>
<path d="M205.08 230.576C211.279 230.676 216.679 226.277 217.879 220.077C219.978 209.278 222.778 194.08 222.878 177.082C222.978 166.683 220.578 153.484 217.379 143.585C212.679 129.087 202.58 116.388 187.982 112.188C168.984 106.789 162.084 108.889 148.586 115.888C133.887 123.587 129.988 137.986 114.689 144.385C99.8907 150.584 81.9925 148.485 68.4939 157.184C56.5951 164.883 50.7957 179.582 50.2958 193.68C49.9958 202.679 50.7957 209.078 52.4955 215.978C54.2954 223.677 61.1946 229.176 69.0938 229.276L205.08 230.576Z" fill="#375A64"/>
<path d="M91.2916 184.081L50.4958 238.075L36.2972 234.876L69.1939 177.182L91.2916 184.081Z" fill="#FFBF9D"/>
<path d="M50.9957 237.375L37.897 256.973L13.3995 240.875C15.0994 238.675 30.7977 242.275 30.7977 242.275L38.6969 229.376L50.9957 237.375Z" fill="#E31C79"/>
<g opacity="0.6">
<g opacity="0.6">
<path opacity="0.6" d="M39.0972 246.174C39.4972 246.574 39.4972 247.374 38.9972 247.774C38.5972 248.174 37.7972 248.174 37.3972 247.774C36.9972 247.374 36.9972 246.474 37.4972 246.074C37.9972 245.674 38.8972 245.774 39.0972 246.174Z" fill="white"/>
</g>
</g>
<g opacity="0.6">
<path opacity="0.6" d="M37.897 256.973L39.0969 254.974L15.1994 240.275C15.1994 240.275 13.7995 240.075 13.3995 240.875L37.897 256.973Z" fill="white"/>
</g>
<path d="M30.5978 241.875C30.4978 241.975 31.0978 242.475 31.3978 243.175C31.7978 243.975 31.6978 244.675 31.8978 244.675C31.9978 244.675 32.2978 243.875 31.8978 242.975C31.3978 242.075 30.5978 241.775 30.5978 241.875Z" fill="#1A2E35"/>
<path d="M27.2981 241.275C27.1981 241.375 27.5981 241.875 27.6981 242.675C27.7981 243.475 27.4981 244.075 27.6981 244.175C27.7981 244.275 28.2981 243.575 28.1981 242.675C27.9981 241.675 27.3981 241.075 27.2981 241.275Z" fill="#1A2E35"/>
<path d="M23.7985 243.375C23.8985 243.475 24.4985 242.975 24.5985 242.175C24.6985 241.275 24.2985 240.675 24.1985 240.775C24.0985 240.875 24.1985 241.375 24.0985 242.075C23.9985 242.775 23.6985 243.275 23.7985 243.375Z" fill="#1A2E35"/>
<path d="M32.6976 239.075C32.6976 239.175 33.2976 239.375 33.9976 239.875C34.6976 240.375 34.9976 240.975 35.1976 240.875C35.2976 240.875 35.0976 240.075 34.2976 239.475C33.4976 238.975 32.6976 238.975 32.6976 239.075Z" fill="#1A2E35"/>
<path d="M35.1973 236.576C35.1973 236.576 35.5973 236.976 36.3973 237.376C36.7973 237.576 37.2973 237.776 37.8973 237.876C38.1973 237.876 38.4973 237.976 38.8973 237.976C39.0973 237.976 39.1973 237.976 39.4973 237.976C39.6973 237.976 39.9973 237.676 39.9973 237.376C39.9973 237.076 39.7973 236.876 39.6973 236.776C39.4973 236.676 39.3973 236.576 39.1973 236.576C38.8973 236.476 38.5973 236.376 38.2973 236.376C37.6973 236.276 37.0973 236.276 36.6973 236.376C35.7973 236.576 35.2973 236.876 35.2973 236.876C35.2973 236.976 35.8973 236.776 36.6973 236.676C37.0973 236.676 37.5973 236.676 38.1973 236.776C38.4973 236.876 38.7973 236.876 38.9973 236.976C39.2973 237.076 39.4973 237.176 39.4973 237.376C39.4973 237.476 39.4973 237.476 39.3973 237.476C39.2973 237.476 39.0973 237.476 38.9973 237.476C38.6973 237.476 38.3973 237.476 38.0973 237.376C37.4973 237.276 36.9973 237.176 36.5973 237.076C35.6973 236.776 35.1973 236.576 35.1973 236.576Z" fill="#1A2E35"/>
<path d="M35.1973 236.876C35.1973 236.876 35.6973 236.676 36.2973 235.876C36.5973 235.476 36.7973 234.976 36.9973 234.376C37.0973 234.076 37.1973 233.776 37.1973 233.376C37.1973 233.076 37.2973 232.576 36.7973 232.276C36.5973 232.076 36.1973 232.176 36.0973 232.276C35.8973 232.376 35.7973 232.476 35.6973 232.676C35.4973 232.976 35.2973 233.176 35.1973 233.476C34.8973 234.076 34.8973 234.576 34.8973 235.076C34.9973 235.976 35.3973 236.476 35.3973 236.476C35.4973 236.476 35.1973 235.976 35.2973 235.076C35.2973 234.676 35.3973 234.176 35.6973 233.676C35.7973 233.476 35.9973 233.176 36.1973 232.976C36.3973 232.776 36.5973 232.576 36.6973 232.676C36.7973 232.776 36.8973 233.076 36.8973 233.376C36.8973 233.676 36.7973 233.976 36.7973 234.276C36.6973 234.776 36.3973 235.276 36.1973 235.676C35.5973 236.476 35.1973 236.776 35.1973 236.876Z" fill="#1A2E35"/>
<path d="M124.088 160.583H86.992C78.8928 160.583 71.2936 164.783 66.994 171.682L49.6958 199.579L71.1936 212.578L88.9918 189.38L109.19 187.68L152.585 160.583H124.088Z" fill="#1A2E35"/>
<path d="M104.69 184.081L63.7944 238.075L49.5958 234.876L82.4924 177.182L104.69 184.081Z" fill="#FFBF9D"/>
<path d="M64.2943 237.375L51.1957 256.973L26.6982 240.875C28.398 238.675 44.0964 242.275 44.0964 242.275L51.9956 229.376L64.2943 237.375Z" fill="#E31C79"/>
<g opacity="0.6">
<g opacity="0.6">
<path opacity="0.6" d="M52.3957 246.174C52.7957 246.574 52.7957 247.374 52.2957 247.774C51.8957 248.174 51.0957 248.174 50.6957 247.774C50.2957 247.374 50.2957 246.474 50.7957 246.074C51.2957 245.674 52.1957 245.774 52.3957 246.174Z" fill="white"/>
</g>
</g>
<g opacity="0.6">
<path opacity="0.6" d="M51.1957 256.973L52.3955 254.974L28.498 240.275C28.498 240.275 27.0981 240.075 26.6982 240.875L51.1957 256.973Z" fill="white"/>
</g>
<path d="M43.8964 241.875C43.7964 241.975 44.3964 242.475 44.6964 243.175C45.0964 243.975 44.9964 244.675 45.1964 244.675C45.2964 244.675 45.5964 243.875 45.1964 242.975C44.6964 242.075 43.8964 241.775 43.8964 241.875Z" fill="#1A2E35"/>
<path d="M40.5968 241.275C40.4968 241.375 40.8968 241.875 40.9968 242.675C41.0968 243.475 40.7968 244.075 40.9968 244.175C41.0968 244.275 41.5968 243.575 41.4968 242.675C41.2968 241.675 40.6968 241.075 40.5968 241.275Z" fill="#1A2E35"/>
<path d="M37.0972 243.375C37.1972 243.475 37.7972 242.975 37.8972 242.175C37.9972 241.275 37.5972 240.675 37.4972 240.775C37.3972 240.875 37.4972 241.375 37.3972 242.075C37.2972 242.775 36.9972 243.275 37.0972 243.375Z" fill="#1A2E35"/>
<path d="M45.9962 239.075C45.9962 239.175 46.5962 239.375 47.2962 239.875C47.9962 240.375 48.2962 240.975 48.4962 240.875C48.5962 240.875 48.3962 240.075 47.5962 239.475C46.7962 238.975 45.9962 238.975 45.9962 239.075Z" fill="#1A2E35"/>
<path d="M48.4959 236.576C48.4959 236.576 48.8959 236.976 49.6959 237.376C50.0959 237.576 50.5959 237.776 51.1959 237.876C51.4959 237.876 51.7959 237.976 52.1959 237.976C52.3959 237.976 52.4959 237.976 52.7959 237.976C52.9959 237.976 53.2959 237.676 53.2959 237.376C53.2959 237.076 53.0959 236.876 52.9959 236.776C52.7959 236.676 52.6959 236.576 52.4959 236.576C52.1959 236.476 51.8959 236.376 51.5959 236.376C50.9959 236.276 50.3959 236.276 49.9959 236.376C49.0959 236.576 48.5959 236.876 48.5959 236.876C48.5959 236.976 49.1959 236.776 49.9959 236.676C50.3959 236.676 50.8959 236.676 51.4959 236.776C51.7959 236.876 52.0959 236.876 52.2959 236.976C52.5959 237.076 52.7959 237.176 52.7959 237.376C52.7959 237.476 52.7959 237.476 52.6959 237.476C52.5959 237.476 52.3959 237.476 52.2959 237.476C51.9959 237.476 51.6959 237.476 51.3959 237.376C50.7959 237.276 50.2959 237.176 49.8959 237.076C48.9959 236.776 48.4959 236.576 48.4959 236.576Z" fill="#1A2E35"/>
<path d="M48.496 236.876C48.496 236.876 48.996 236.676 49.596 235.876C49.896 235.476 50.096 234.976 50.296 234.376C50.396 234.076 50.496 233.776 50.496 233.376C50.496 233.076 50.596 232.576 50.096 232.276C49.896 232.076 49.496 232.176 49.396 232.276C49.196 232.376 49.096 232.476 48.996 232.676C48.796 232.976 48.596 233.176 48.496 233.476C48.196 234.076 48.196 234.576 48.196 235.076C48.296 235.976 48.696 236.476 48.696 236.476C48.796 236.476 48.496 235.976 48.596 235.076C48.596 234.676 48.696 234.176 48.996 233.676C49.096 233.476 49.296 233.176 49.496 232.976C49.696 232.776 49.896 232.576 49.996 232.676C50.096 232.776 50.196 233.076 50.196 233.376C50.196 233.676 50.096 233.976 50.096 234.276C49.996 234.776 49.696 235.276 49.496 235.676C48.896 236.476 48.496 236.776 48.496 236.876Z" fill="#1A2E35"/>
<path d="M137.387 160.583H98.9907C91.6915 160.583 84.8922 164.383 80.9926 170.582L62.9944 199.579L84.4922 212.578L103.69 187.38L122.488 187.58L164.284 161.483L137.387 160.583Z" fill="#1A2E35"/>
<path d="M84.4923 212.678C84.4923 212.678 84.3923 212.578 84.0923 212.478C83.7923 212.278 83.3924 212.078 82.8924 211.778C81.8925 211.178 80.3927 210.278 78.4929 209.178C74.6933 206.879 69.2938 203.679 62.8945 199.779L62.7945 199.679L62.8945 199.579C66.2941 194.08 70.1937 187.581 74.3933 180.781C77.8929 175.282 81.3926 170.082 84.8922 165.683C85.7921 164.483 86.992 163.683 88.1919 163.183C89.3918 162.583 90.6916 162.183 91.8915 161.883C94.2913 161.283 96.691 160.983 98.7908 160.783C103.09 160.383 106.49 160.483 108.89 160.583C110.09 160.583 110.99 160.683 111.589 160.683C111.889 160.683 112.089 160.683 112.289 160.683C112.489 160.683 112.489 160.683 112.489 160.683C112.489 160.683 112.389 160.683 112.289 160.683C112.089 160.683 111.889 160.683 111.589 160.683C110.89 160.683 109.99 160.683 108.89 160.683C106.49 160.683 103.09 160.683 98.7908 161.083C96.691 161.283 94.3913 161.583 91.8915 162.183C90.6916 162.483 89.4918 162.883 88.2919 163.483C87.092 164.083 85.9921 164.783 85.0922 165.983C81.5926 170.482 78.1929 175.582 74.6933 181.081C70.3937 187.881 66.5941 194.38 63.0945 199.879L62.9945 199.679C69.3938 203.579 74.6933 206.879 78.4929 209.178C80.3927 210.278 81.7925 211.278 82.8924 211.878C83.3924 212.178 83.7923 212.378 83.9923 212.578C84.3923 212.578 84.4923 212.678 84.4923 212.678Z" fill="#375A64"/>
<path d="M67.994 202.579C68.094 202.679 64.6943 208.678 60.3948 216.177C56.0952 223.677 52.4956 229.676 52.3956 229.576C52.2956 229.476 55.6952 223.477 59.9948 215.977C64.3943 208.478 67.894 202.479 67.994 202.579Z" fill="#FF9A6C"/>
<path d="M194.681 114.888C194.681 114.888 194.781 114.988 194.781 115.188C194.881 115.388 194.981 115.688 195.181 115.988C195.481 116.688 195.981 117.788 196.681 119.088C196.981 119.787 197.381 120.487 197.681 121.387C198.081 122.187 198.381 123.187 198.78 124.187C199.18 125.187 199.58 126.287 199.98 127.387C200.48 128.487 200.78 129.686 201.18 130.986C201.58 132.286 201.98 133.586 202.48 134.986C202.68 135.686 202.88 136.386 203.08 137.186C203.28 137.886 203.48 138.685 203.68 139.385C203.88 140.185 204.08 140.885 204.28 141.685C204.38 142.085 204.48 142.485 204.58 142.885C204.68 143.285 204.78 143.685 204.88 144.085C205.18 145.685 205.58 147.385 205.88 149.184C207.08 156.184 207.98 163.883 208.18 172.082C208.379 180.281 207.98 188.08 207.28 195.08C206.88 198.579 206.48 201.979 205.98 205.079C205.68 206.679 205.48 208.178 205.28 209.578C204.98 210.978 204.78 212.378 204.48 213.678C203.98 216.278 203.38 218.677 202.98 220.777C202.78 221.777 202.48 222.777 202.28 223.677C202.08 224.577 201.88 225.377 201.68 226.077C201.28 227.476 200.98 228.576 200.78 229.376C200.68 229.776 200.58 230.076 200.58 230.276C200.48 230.476 200.48 230.576 200.48 230.576C200.48 230.576 200.48 230.476 200.58 230.276C200.68 230.076 200.68 229.776 200.78 229.376C200.98 228.576 201.28 227.476 201.58 226.077C201.78 225.377 201.98 224.577 202.18 223.677C202.38 222.777 202.58 221.777 202.78 220.777C203.18 218.677 203.78 216.378 204.28 213.678C204.48 212.378 204.78 210.978 205.08 209.578C205.38 208.178 205.58 206.679 205.78 205.079C206.28 201.979 206.68 198.679 207.08 195.08C207.78 188.08 208.18 180.281 207.98 172.082C207.78 163.883 206.88 156.184 205.68 149.184C205.38 147.485 204.98 145.785 204.68 144.085C204.58 143.685 204.48 143.285 204.48 142.885C204.38 142.485 204.28 142.085 204.18 141.685C203.98 140.885 203.78 140.085 203.58 139.385C203.38 138.585 203.18 137.886 202.98 137.186C202.78 136.486 202.58 135.686 202.38 134.986C201.98 133.586 201.48 132.286 201.08 130.986C200.68 129.686 200.28 128.487 199.88 127.387C199.48 126.287 199.08 125.187 198.68 124.187C198.281 123.187 197.981 122.287 197.581 121.387C197.181 120.587 196.881 119.787 196.581 119.088C195.981 117.688 195.481 116.688 195.181 115.888C195.081 115.588 194.881 115.288 194.781 115.088C194.681 114.988 194.681 114.888 194.681 114.888Z" fill="#1A2E35"/>
<path d="M96.9909 212.978C97.0909 212.978 96.9909 213.878 96.9909 215.378C96.9909 216.777 96.8909 218.877 96.9909 221.077C97.0909 223.277 97.1909 225.277 97.2909 226.776C97.3909 228.176 97.4909 229.076 97.3909 229.076C97.3909 229.076 97.1909 228.176 96.9909 226.776C96.791 225.377 96.591 223.377 96.591 221.077C96.491 218.877 96.591 216.877 96.691 215.378C96.791 213.878 96.8909 212.978 96.9909 212.978Z" fill="#1A2E35"/>
<path d="M130.687 124.987L123.088 150.984L94.8912 154.084V159.083L136.287 159.583L141.986 125.687L130.687 124.987Z" fill="#FFBF9D"/>
<path d="M184.882 107.889C181.582 100.289 172.183 97.5896 167.184 97.5896C160.184 97.5896 160.884 97.1897 153.985 98.3895H153.085C132.287 97.5896 129.888 126.187 129.888 126.187L139.387 126.987L136.887 146.685L129.588 160.683L169.584 160.583L171.783 127.987L189.581 127.487C189.581 127.487 187.982 114.988 184.882 107.889Z" fill="#E31C79"/>
<path d="M140.387 114.088C140.487 114.088 139.787 121.087 138.787 129.587C137.787 138.186 136.887 145.085 136.787 145.085C136.687 145.085 137.387 138.086 138.387 129.587C139.487 120.987 140.287 114.088 140.387 114.088Z" fill="#1A2E35"/>
<path d="M169.184 97.4897C169.184 97.4897 169.184 97.5897 169.284 97.8897C169.284 98.0897 169.284 98.4896 169.284 98.8896C169.284 99.7895 169.284 101.089 168.784 102.589C168.384 104.089 167.584 105.989 166.084 107.489C165.284 108.289 164.384 108.889 163.284 109.289C162.184 109.688 160.984 109.888 159.784 109.888C158.585 109.888 157.385 109.888 156.185 109.589C155.085 109.389 153.985 108.989 153.085 108.289C151.385 106.989 150.585 105.089 150.185 103.589C149.786 101.989 149.786 100.689 149.786 99.8895C149.786 99.4895 149.786 99.0896 149.886 98.8896C149.886 98.6896 149.886 98.4896 149.985 98.4896C149.985 98.4896 149.985 98.9896 149.985 99.8895C149.985 100.789 150.085 102.089 150.485 103.589C150.885 105.089 151.685 106.889 153.385 108.089C154.185 108.689 155.185 109.089 156.285 109.289C157.385 109.489 158.585 109.489 159.784 109.489C160.984 109.489 162.184 109.289 163.184 108.889C164.184 108.489 165.184 107.889 165.884 107.189C167.384 105.789 168.184 103.989 168.584 102.489C169.084 100.989 169.184 99.6895 169.184 98.7896C169.184 97.9897 169.184 97.4897 169.184 97.4897Z" fill="#1A2E35"/>
<g opacity="0.2">
<g opacity="0.2">
<path opacity="0.2" d="M170.983 114.088C169.283 122.287 167.084 130.586 165.384 138.786C164.984 140.485 164.584 142.285 163.584 143.785C162.884 144.685 162.084 145.385 161.184 145.985C157.785 148.485 154.285 150.884 150.285 152.284C155.985 151.784 161.684 150.784 167.184 149.384C168.084 149.185 169.083 148.785 169.683 148.085C170.183 147.385 170.383 146.485 170.483 145.685C171.683 135.186 171.383 124.587 170.983 114.088Z" fill="black"/>
</g>
</g>
<path d="M115.689 150.384L128.088 148.884L136.787 154.584L170.183 146.585L171.183 127.887L186.182 127.487L185.882 149.384C185.782 156.484 179.882 161.983 172.783 161.783L123.788 160.383L121.688 156.184L111.189 155.884L115.689 150.384Z" fill="#FFBF9D"/>
<path d="M170.283 146.585C170.283 146.585 170.083 146.685 169.683 146.785C169.283 146.885 168.584 147.085 167.884 147.285C166.284 147.685 163.984 148.285 161.184 148.984C155.485 150.384 147.686 152.284 138.987 154.384C138.287 154.584 137.587 154.684 136.887 154.884H136.787H136.687C133.587 152.884 130.687 150.884 127.988 149.184H128.088C123.188 149.784 118.889 150.284 115.689 150.584H115.789C114.389 152.384 113.289 153.784 112.489 154.784C112.089 155.284 111.789 155.584 111.589 155.884C111.389 156.084 111.289 156.284 111.289 156.284C111.289 156.284 111.389 156.184 111.589 155.884C111.789 155.584 112.089 155.184 112.389 154.784C113.189 153.784 114.189 152.384 115.589 150.584H115.689C118.989 150.184 123.188 149.684 128.088 149.084H128.188H128.288C130.987 150.884 133.987 152.784 137.087 154.784H136.887C137.587 154.584 138.287 154.484 138.987 154.284C147.686 152.184 155.485 150.384 161.184 148.984C163.984 148.385 166.284 147.785 167.884 147.385C168.684 147.185 169.283 147.085 169.683 146.985C170.083 146.685 170.283 146.585 170.283 146.585Z" fill="#FF9A6C"/>
<path d="M122.889 153.984C122.889 154.084 120.689 154.184 118.089 154.184C117.789 154.184 117.489 154.184 117.189 154.184H117.289C115.589 155.584 114.189 156.684 114.189 156.584C114.089 156.484 115.389 155.384 117.089 153.884H117.189H117.289C117.589 153.884 117.889 153.884 118.189 153.884C120.789 153.784 122.889 153.884 122.889 153.984Z" fill="#FF9A6C"/>
<path d="M176.183 149.785C176.083 149.885 175.483 148.285 173.783 147.285C172.083 146.185 170.383 146.285 170.483 146.185C170.483 146.185 170.883 146.085 171.583 146.085C172.283 146.185 173.183 146.385 174.083 146.985C174.983 147.585 175.583 148.285 175.883 148.885C176.083 149.285 176.183 149.685 176.183 149.785Z" fill="#FF9A6C"/>
<path d="M189.881 127.587C189.881 127.587 189.381 127.686 188.582 127.686C187.682 127.686 186.382 127.786 184.882 127.786C181.782 127.886 177.483 127.986 172.783 128.086C172.283 128.086 171.783 128.086 171.283 128.086H171.083V127.886C170.883 123.487 170.983 119.587 171.083 116.788C171.083 115.388 171.183 114.288 171.183 113.488C171.183 112.688 171.283 112.288 171.283 112.288C171.283 112.288 171.283 112.688 171.283 113.488C171.283 114.288 171.283 115.388 171.283 116.788C171.283 119.587 171.283 123.487 171.383 127.786L171.183 127.587C171.683 127.587 172.183 127.587 172.683 127.587C177.383 127.487 181.682 127.387 184.782 127.387C186.282 127.387 187.482 127.387 188.482 127.387C189.381 127.587 189.881 127.587 189.881 127.587Z" fill="#1A2E35"/>
<path d="M203.981 177.482C203.881 177.582 202.081 175.982 199.881 173.882C197.681 171.782 195.981 170.082 196.081 169.982C196.181 169.882 197.981 171.482 200.181 173.582C202.281 175.682 203.981 177.382 203.981 177.482Z" fill="#FAFAFA"/>
<path d="M194.381 215.678C194.381 215.678 193.781 216.078 192.781 216.678C191.781 217.278 190.481 217.977 188.981 218.877C187.482 219.777 186.182 220.577 185.282 221.277C184.382 221.877 183.782 222.277 183.682 222.177C183.682 222.177 184.182 221.677 185.082 220.977C185.982 220.277 187.282 219.377 188.781 218.477C190.281 217.578 191.681 216.878 192.681 216.278C193.681 215.878 194.381 215.678 194.381 215.678Z" fill="#FAFAFA"/>
<path d="M211.78 136.487C211.68 136.587 210.38 134.887 208.88 132.787C207.38 130.687 206.18 128.887 206.28 128.887C206.38 128.787 207.68 130.487 209.18 132.587C210.68 134.687 211.78 136.387 211.78 136.487Z" fill="#FAFAFA"/>
<path d="M215.079 146.185C215.179 146.185 214.379 148.085 213.379 150.185C212.279 152.385 211.379 154.085 211.279 154.085C211.179 154.085 211.979 152.185 212.979 150.085C214.079 147.885 214.979 146.185 215.079 146.185Z" fill="#FAFAFA"/>
<path d="M217.878 177.582C217.778 177.582 216.379 174.982 214.679 171.682C212.979 168.382 211.779 165.683 211.879 165.583C211.979 165.583 213.379 168.182 215.079 171.482C216.679 174.782 217.878 177.482 217.878 177.582Z" fill="#FAFAFA"/>
<path d="M217.479 191.38C217.579 191.48 216.179 193.58 214.479 196.08C212.679 198.58 211.179 200.58 211.179 200.58C211.079 200.48 212.479 198.38 214.179 195.88C215.879 193.38 217.379 191.38 217.479 191.38Z" fill="#FAFAFA"/>
<path d="M212.979 220.577C213.079 220.677 212.179 221.677 211.079 222.877C209.979 224.077 208.979 224.977 208.879 224.877C208.779 224.777 209.679 223.777 210.779 222.577C211.879 221.477 212.879 220.577 212.979 220.577Z" fill="#FAFAFA"/>
<path d="M57.095 185.681C56.9951 185.681 57.695 182.981 58.7949 179.681C59.7948 176.382 60.6947 173.782 60.7947 173.782C60.8947 173.782 60.1947 176.482 59.0948 179.781C58.0949 183.081 57.195 185.681 57.095 185.681Z" fill="#FAFAFA"/>
<path d="M70.7944 166.083C70.7944 166.183 68.9944 165.983 66.8944 165.983C64.6944 166.083 62.9944 166.383 62.9944 166.283C62.9944 166.183 64.6944 165.683 66.8944 165.583C69.0944 165.483 70.7944 165.983 70.7944 166.083Z" fill="#FAFAFA"/>
<path d="M169.584 72.9927L167.684 99.6899C167.384 104.089 163.784 107.389 159.385 107.389C154.585 107.389 150.785 103.29 151.085 98.4901C151.285 95.9903 151.385 93.8905 151.385 93.8905C151.385 93.8905 144.886 92.8907 144.886 86.3913C144.786 80.5919 146.386 63.5937 146.686 59.894H158.385C165.084 60.394 170.183 66.2934 169.584 72.9927Z" fill="#FFBF9D"/>
<path d="M151.385 93.7904C151.385 93.7904 155.485 94.0904 159.785 91.3904C159.785 91.3904 157.785 96.0904 151.385 95.4904V93.7904Z" fill="#FF9A6C"/>
<path d="M147.686 75.4926C147.686 75.9926 148.086 76.3926 148.586 76.3926C149.086 76.3926 149.486 76.0926 149.586 75.5926C149.586 75.0926 149.186 74.6926 148.686 74.6926C148.086 74.6926 147.686 74.9926 147.686 75.4926Z" fill="#1A2E35"/>
<path d="M147.086 74.1926C147.186 74.2926 147.886 73.7926 148.886 73.7926C149.886 73.7926 150.586 74.2926 150.686 74.1926C150.786 74.0926 150.586 73.8926 150.286 73.6926C149.986 73.4926 149.486 73.1926 148.786 73.1926C148.186 73.1926 147.686 73.3926 147.386 73.6926C147.186 73.9926 147.086 74.1926 147.086 74.1926Z" fill="#1A2E35"/>
<path d="M156.985 75.7922C156.985 76.2922 157.385 76.6922 157.885 76.6922C158.385 76.6922 158.785 76.3922 158.885 75.8922C158.885 75.3922 158.485 74.9922 157.985 74.9922C157.485 74.8922 157.085 75.2922 156.985 75.7922Z" fill="#1A2E35"/>
<path d="M156.885 74.3923C156.985 74.4923 157.685 73.9923 158.685 73.9923C159.685 73.9923 160.385 74.4923 160.485 74.3923C160.585 74.2923 160.385 74.0923 160.085 73.8923C159.785 73.6923 159.285 73.3923 158.585 73.3923C157.985 73.3923 157.485 73.5923 157.185 73.8923C156.885 74.1923 156.785 74.3923 156.885 74.3923Z" fill="#1A2E35"/>
<path d="M153.286 81.7927C153.286 81.6927 152.686 81.5927 151.686 81.4927C151.386 81.4927 151.186 81.3927 151.186 81.2927C151.086 81.0927 151.186 80.7927 151.386 80.4927C151.586 79.8927 151.886 79.1927 152.186 78.5927C153.186 75.7927 153.986 73.5927 153.886 73.4927C153.786 73.4927 152.886 75.6927 151.786 78.3927C151.486 79.0927 151.286 79.6927 151.086 80.2927C150.986 80.5927 150.786 80.8927 150.986 81.2927C151.086 81.4927 151.286 81.5927 151.386 81.6927C151.586 81.6927 151.686 81.7927 151.786 81.7927C152.586 81.7927 153.286 81.7927 153.286 81.7927Z" fill="#1A2E35"/>
<path d="M156.185 82.4915C155.985 82.4915 155.985 83.5915 155.085 84.2915C154.185 85.0915 152.985 84.8915 152.985 85.0915C152.985 85.1915 153.285 85.2915 153.685 85.2915C154.185 85.2915 154.885 85.1915 155.385 84.6915C155.985 84.1915 156.185 83.5915 156.185 83.1915C156.385 82.6915 156.285 82.4915 156.185 82.4915Z" fill="#1A2E35"/>
<path d="M156.586 70.4926C156.686 70.7926 157.686 70.5926 158.886 70.7926C160.086 70.8926 160.986 71.2926 161.186 70.9926C161.286 70.8926 161.086 70.5926 160.686 70.3926C160.286 70.0926 159.686 69.8926 158.986 69.7926C158.286 69.6926 157.686 69.7926 157.186 69.9926C156.786 70.1926 156.586 70.3926 156.586 70.4926Z" fill="#1A2E35"/>
<path d="M147.486 71.3927C147.686 71.5927 148.386 71.3927 149.186 71.3927C149.986 71.3927 150.686 71.5927 150.886 71.2927C150.986 71.1927 150.886 70.9927 150.586 70.6927C150.286 70.4927 149.786 70.2927 149.186 70.2927C148.586 70.2927 148.086 70.4927 147.886 70.7927C147.486 70.9927 147.386 71.2927 147.486 71.3927Z" fill="#1A2E35"/>
<path d="M167.384 77.7919C167.484 77.7919 171.784 76.4919 171.684 80.8919C171.584 85.2919 167.184 84.2919 167.084 84.0919C167.084 83.9919 167.384 77.7919 167.384 77.7919Z" fill="#FFBF9D"/>
<path d="M168.484 82.4918C168.484 82.4918 168.584 82.5918 168.684 82.5918C168.784 82.6918 168.984 82.6918 169.284 82.5918C169.784 82.3918 170.184 81.6918 170.184 80.8918C170.184 80.4918 170.184 80.0918 169.984 79.7918C169.884 79.4918 169.684 79.1918 169.384 79.1918C169.184 79.0918 168.984 79.2918 168.884 79.3918C168.784 79.4918 168.884 79.5918 168.784 79.5918C168.784 79.5918 168.684 79.4918 168.684 79.2918C168.684 79.1918 168.784 79.0918 168.884 78.9918C168.984 78.8918 169.184 78.8918 169.284 78.8918C169.584 78.8918 169.884 79.2918 170.084 79.5918C170.284 79.9918 170.384 80.3918 170.284 80.7918C170.184 81.6918 169.784 82.4918 169.084 82.6918C168.784 82.7918 168.484 82.6918 168.384 82.5918C168.484 82.5918 168.484 82.4918 168.484 82.4918Z" fill="#FF9A6C"/>
<path d="M169.884 77.6921C169.184 77.4921 168.084 78.192 167.784 78.792C167.484 79.3919 167.384 80.0919 167.184 80.7918C166.884 81.3917 166.284 81.9917 165.584 81.7917C165.084 81.6917 164.784 81.2917 164.684 80.7918C164.585 80.2918 164.585 79.7919 164.684 79.3919C164.984 77.2921 165.384 75.2923 165.484 73.1926C165.584 71.0928 165.284 68.993 164.185 67.1932C163.085 65.3934 161.085 64.0935 158.985 64.2935C157.585 64.3935 156.385 65.0934 154.985 65.2934C153.386 65.4934 151.686 64.9934 150.486 63.7935C150.386 63.6935 149.686 63.1936 149.686 63.1936C149.686 63.0936 149.786 62.1937 150.186 61.7937C152.886 59.294 157.785 58.5941 161.385 59.494C164.984 60.3939 168.284 62.8936 169.884 66.2933C171.184 69.5929 170.684 74.2924 169.884 77.6921Z" fill="#1A2E35"/>
<path d="M169.684 77.2919C169.884 75.0921 170.983 73.1923 171.583 71.0925C172.183 68.9928 171.983 66.393 170.384 64.9932C169.784 64.4932 169.084 64.1933 168.584 63.6933C168.084 63.1934 167.684 62.4934 167.284 61.7935C166.084 59.7937 163.884 58.4938 161.584 58.2939C159.985 58.1939 158.385 58.4938 156.785 58.3939C154.285 58.1939 151.885 56.894 149.286 56.994C148.486 56.994 147.586 57.294 146.986 57.8939C146.486 58.5938 146.586 59.6937 147.286 60.0937C146.886 59.4937 145.786 59.4937 145.286 59.9937C144.786 60.5936 144.786 61.4935 145.186 62.0935C145.586 62.7934 146.186 63.2934 146.786 63.5933C148.886 64.8932 151.585 65.3931 153.985 64.8932L158.785 62.2935L164.184 63.4933L169.284 66.893L166.984 76.392L169.684 77.2919Z" fill="#1A2E35"/>
<path d="M59.4948 129.887L75.1932 160.683H124.588L122.588 156.684L108.29 156.284L96.591 130.386C95.891 128.787 94.2912 127.687 92.4914 127.687H60.8946C59.7948 127.587 58.9948 128.787 59.4948 129.887Z" fill="#C1C1C1"/>
<path d="M82.7926 145.485C83.8972 145.485 84.7926 144.59 84.7926 143.485C84.7926 142.381 83.8972 141.485 82.7926 141.485C81.688 141.485 80.7926 142.381 80.7926 143.485C80.7926 144.59 81.688 145.485 82.7926 145.485Z" fill="#1A2E35"/>
<path d="M191.481 129.187C191.381 137.786 186.082 145.785 179.282 150.984C172.383 156.184 164.084 159.083 155.785 161.483C147.486 163.883 138.987 165.883 131.187 169.482C120.389 174.582 110.39 181.581 104.29 191.88C98.1908 202.179 95.9911 215.678 96.691 227.576L188.382 218.377L193.381 166.283L191.481 129.187Z" fill="#375A64"/>
<path d="M155.785 161.483C155.785 161.483 155.685 161.483 155.585 161.583C155.385 161.583 155.285 161.683 154.985 161.683C154.485 161.783 153.685 161.983 152.685 162.183C150.685 162.683 147.886 163.383 144.486 164.383C141.086 165.483 136.987 166.883 132.687 168.783C128.388 170.682 123.688 173.182 119.289 176.382C117.089 178.082 115.089 179.782 113.289 181.581C111.49 183.381 109.79 185.181 108.29 187.081C105.29 190.78 103.09 194.48 101.591 197.68C100.091 200.979 99.1908 203.679 98.7908 205.679C98.4908 206.679 98.3909 207.379 98.2909 207.979C98.1909 208.179 98.1909 208.379 98.1909 208.579C98.1909 208.679 98.0909 208.779 98.0909 208.779C98.0909 208.779 98.0909 208.679 98.0909 208.579C98.0909 208.379 98.1909 208.179 98.1909 207.979C98.2909 207.479 98.3909 206.679 98.5908 205.679C98.9908 203.679 99.8907 200.879 101.291 197.58C102.79 194.28 104.99 190.58 107.99 186.881C109.49 184.981 111.19 183.181 112.989 181.381C114.889 179.582 116.889 177.782 118.989 176.082C123.388 172.782 128.088 170.382 132.487 168.483C136.887 166.583 140.886 165.183 144.386 164.183C147.786 163.183 150.685 162.483 152.685 162.083C153.685 161.883 154.485 161.783 154.985 161.683C155.185 161.683 155.385 161.583 155.585 161.583C155.685 161.483 155.785 161.483 155.785 161.483Z" fill="#1A2E35"/>
<path d="M175.383 205.279C175.483 205.379 172.583 207.078 168.984 209.178C165.384 211.278 162.484 212.778 162.484 212.778C162.484 212.778 165.284 210.978 168.884 208.878C172.483 206.778 175.383 205.179 175.383 205.279Z" fill="#FAFAFA"/>
<path d="M134.087 207.979C134.087 207.979 133.487 207.479 132.587 206.579C131.687 205.679 130.488 204.479 129.088 203.179C127.688 201.879 126.388 200.679 125.488 199.879C124.588 199.079 123.988 198.479 123.988 198.479C123.988 198.479 124.688 198.879 125.588 199.679C126.588 200.479 127.888 201.579 129.288 202.979C130.688 204.279 131.887 205.579 132.787 206.479C133.587 207.279 134.087 207.879 134.087 207.979Z" fill="#FAFAFA"/>
<path d="M153.185 182.381C153.285 182.381 152.685 184.881 151.885 187.881C151.085 190.88 150.385 193.38 150.285 193.28C150.185 193.28 150.785 190.78 151.585 187.781C152.385 184.781 153.085 182.281 153.185 182.381Z" fill="#FAFAFA"/>
<path d="M189.781 188.78C189.781 188.88 187.082 187.781 183.882 186.381C180.682 184.981 178.083 183.681 178.083 183.581C178.083 183.481 180.782 184.581 184.082 185.981C187.282 187.381 189.881 188.68 189.781 188.78Z" fill="#FAFAFA"/>
<path d="M147.686 222.578C147.586 222.578 147.186 220.478 146.686 217.778C146.286 215.178 145.986 212.978 146.086 212.978C146.186 212.978 146.586 215.078 147.086 217.778C147.586 220.378 147.786 222.578 147.686 222.578Z" fill="#FAFAFA"/>
<path d="M115.79 220.478C115.69 220.578 113.79 218.478 111.49 215.878C109.19 213.278 107.39 211.078 107.49 210.978C107.59 210.878 109.49 212.978 111.79 215.578C114.09 218.178 115.89 220.378 115.79 220.478Z" fill="#FAFAFA"/>
<path d="M141.187 173.782C141.187 173.882 139.087 174.982 136.487 176.382C133.887 177.682 131.687 178.682 131.587 178.582C131.587 178.482 133.687 177.382 136.287 175.982C138.987 174.682 141.187 173.682 141.187 173.782Z" fill="#FAFAFA"/>
<path d="M177.583 167.683C177.583 167.783 174.983 167.883 171.883 167.883C168.684 167.883 166.184 167.783 166.184 167.683C166.184 167.583 168.784 167.483 171.883 167.483C174.983 167.483 177.583 167.583 177.583 167.683Z" fill="#FAFAFA"/>
<path d="M192.182 142.485C192.282 142.485 191.682 144.485 190.582 146.785C189.482 149.085 188.382 150.785 188.282 150.785C188.182 150.685 189.182 148.885 190.282 146.585C191.282 144.285 192.082 142.385 192.182 142.485Z" fill="#FAFAFA"/>
<path d="M198.798 50.5963C208.628 50.5963 216.596 42.6278 216.596 32.7982C216.596 22.9685 208.628 15 198.798 15C188.969 15 181 22.9685 181 32.7982C181 42.6278 188.969 50.5963 198.798 50.5963Z" fill="#00C1D5"/>
<path d="M192.199 37.4978C192.199 37.3978 192.199 37.2978 192.199 37.1978H191.299C190.099 37.1978 189.099 38.1978 189.099 39.3978V42.1978C189.099 42.4978 189.399 42.7978 189.699 42.7978H192.199C192.099 42.5978 192.099 42.3978 192.099 42.1978V37.4978H192.199Z" fill="white"/>
<path d="M196.399 35.5981C196.399 35.4981 196.399 35.3981 196.399 35.2981H195.499C194.299 35.2981 193.299 36.2981 193.299 37.4981V42.1981C193.299 42.4981 193.599 42.7981 193.899 42.7981H196.399C196.299 42.5981 196.299 42.3981 196.299 42.1981L196.399 35.5981Z" fill="white"/>
<path d="M204.897 31.7983H203.898C202.698 31.7983 201.698 32.7982 201.698 33.9981V42.1973C201.698 42.4972 201.998 42.7972 202.298 42.7972H206.497C206.797 42.7972 207.097 42.4972 207.097 42.1973V33.9981C207.097 32.7982 206.097 31.7983 204.897 31.7983Z" fill="white"/>
<path d="M200.598 33.9984C200.598 33.7984 200.598 33.5984 200.598 33.3984H199.698C198.498 33.3984 197.498 34.3984 197.498 35.5984V42.1984C197.498 42.4984 197.798 42.7984 198.098 42.7984H200.598C200.498 42.5984 200.498 42.3984 200.498 42.1984V33.9984H200.598Z" fill="white"/>
<path d="M208.398 25.6993C208.298 25.4993 208.098 25.2993 207.898 25.2993L205.798 24.9993L204.898 23.0993C204.798 22.8993 204.598 22.7993 204.398 22.7993C204.198 22.7993 203.998 22.8993 203.898 23.0993L202.998 24.9993L200.898 25.2993C200.698 25.2993 200.498 25.4993 200.398 25.6993C200.298 25.8993 200.398 26.0993 200.498 26.2993L201.998 27.7993L201.598 29.8993C201.598 30.0993 201.698 30.2993 201.798 30.4993C201.998 30.5993 202.198 30.5993 202.398 30.4993L204.298 29.4993L206.198 30.4993C206.298 30.4993 206.398 30.5993 206.498 30.5993C206.798 30.5993 207.098 30.2993 207.098 29.9993V29.8993L206.698 27.8993L208.198 26.3993C208.398 26.0993 208.498 25.8993 208.398 25.6993Z" fill="white"/>
<path d="M249.798 176.596C259.628 176.596 267.596 168.628 267.596 158.798C267.596 148.969 259.628 141 249.798 141C239.969 141 232 148.969 232 158.798C232 168.628 239.969 176.596 249.798 176.596Z" fill="#005EB8"/>
<path d="M243.899 164.798H257.597H257.697C257.997 164.798 258.197 164.598 258.197 164.298V149.399C258.197 149.099 257.997 148.899 257.697 148.899H257.597H244.799H243.999C242.599 148.899 241.399 149.999 241.399 151.499C241.399 151.499 241.399 151.499 241.399 151.599C241.399 152.899 241.399 164.798 241.399 166.397V166.497C241.399 167.897 242.499 168.997 243.799 168.997H243.899H257.797C258.097 168.997 258.297 168.797 258.297 168.497V166.497C258.297 166.197 258.097 165.997 257.797 165.997C257.497 165.997 257.297 166.197 257.297 166.497V167.997H243.999C243.199 167.997 242.499 167.397 242.499 166.597V166.497C242.399 165.397 243.099 164.798 243.899 164.798ZM244.199 151.399C244.199 151.099 244.399 150.899 244.699 150.899C244.999 150.899 245.199 151.099 245.199 151.399V162.098C245.199 162.398 244.999 162.598 244.699 162.598C244.399 162.598 244.199 162.398 244.199 162.098V151.399Z" fill="white"/>
<path d="M273.126 85.2353C276.319 72.7138 268.757 59.9745 256.235 56.7815C243.714 53.5884 230.975 61.1507 227.782 73.6722C224.588 86.1938 232.151 98.933 244.672 102.126C257.194 105.319 269.933 97.7569 273.126 85.2353Z" fill="#E31C79"/>
<path d="M239.429 91.236H242.129C243.129 91.236 244.029 90.4361 244.029 89.3362V77.0375C244.029 76.0376 243.229 75.1377 242.129 75.1377H239.429C238.429 75.1377 237.53 75.9376 237.53 77.0375V89.3362C237.63 90.3361 238.429 91.236 239.429 91.236Z" fill="white"/>
<path d="M251.329 67.3376C250.229 67.3376 249.729 67.8376 249.729 70.5373C249.729 73.0371 247.229 75.1368 245.729 76.1367V89.4354C247.429 90.2353 250.829 91.4352 256.228 91.4352H257.928C260.028 91.4352 261.828 89.9353 262.128 87.8355L263.328 80.8363C263.728 78.2365 261.728 75.8368 259.128 75.8368H254.029C254.029 75.8368 254.829 74.2369 254.829 71.5372C254.729 68.4375 252.329 67.3376 251.329 67.3376Z" fill="white"/>
<path d="M23.7014 130.395C32.3702 128.184 37.6056 119.365 35.395 110.696C33.1844 102.027 24.365 96.7919 15.6962 99.0025C7.02742 101.213 1.79203 110.033 4.00261 118.701C6.21319 127.37 15.0326 132.605 23.7014 130.395Z" fill="#E31C79"/>
<path d="M23.5894 110.611C22.0896 110.611 20.6897 110.311 19.5898 109.911C19.2899 109.811 18.9899 109.611 18.6899 109.411V110.511C18.6899 110.91 19.1899 111.41 19.9898 111.71C20.9897 112.11 22.1896 112.41 23.5894 112.41C24.9893 112.41 26.2892 112.21 27.1891 111.71C27.989 111.31 28.4889 110.91 28.4889 110.511V109.411C28.289 109.611 27.989 109.711 27.589 109.911C26.5891 110.311 25.0893 110.611 23.5894 110.611Z" fill="white"/>
<path d="M23.5888 120.609C24.9888 120.609 26.2888 120.409 27.1888 119.909C27.9888 119.509 28.4888 119.109 28.4888 118.709V117.609C28.2888 117.809 27.9888 117.909 27.5888 118.109C26.4888 118.609 25.0888 118.809 23.5888 118.809C22.9888 118.809 22.3888 118.809 21.7888 118.709C21.7888 119.309 21.6888 119.809 21.4888 120.409C22.1888 120.509 22.8888 120.609 23.5888 120.609Z" fill="white"/>
<path d="M20.2898 114.51C21.1897 114.81 22.3896 115.01 23.5894 115.01C24.9893 115.01 26.2892 114.81 27.1891 114.31C27.989 113.91 28.4889 113.51 28.4889 113.11V112.01C28.289 112.21 27.989 112.31 27.589 112.51C26.4891 113.01 25.0893 113.21 23.5894 113.21C22.0896 113.21 20.6897 112.91 19.5898 112.51C19.2899 112.41 18.9899 112.21 18.6899 112.01V113.11C19.2899 113.61 19.8898 114.01 20.2898 114.51Z" fill="white"/>
<path d="M23.5888 117.81C24.9888 117.81 26.2888 117.61 27.1888 117.11C27.9888 116.71 28.4888 116.31 28.4888 115.91V114.81C28.2888 115.01 27.9888 115.11 27.5888 115.31C26.4888 115.81 25.0888 116.01 23.5888 116.01C22.7888 116.01 21.8888 115.91 21.1888 115.81C21.4888 116.41 21.6888 117.01 21.7888 117.61C22.3888 117.81 22.9888 117.81 23.5888 117.81Z" fill="white"/>
<path d="M19.9898 108.91C20.9897 109.31 22.1896 109.61 23.5894 109.61C24.9893 109.61 26.2892 109.41 27.1891 108.91C27.989 108.51 28.4889 108.11 28.4889 107.71C28.4889 107.31 27.989 106.81 27.1891 106.51C26.1892 106.111 24.9893 105.811 23.5894 105.811C22.1896 105.811 20.8897 106.011 19.9898 106.51C19.1899 106.91 18.6899 107.31 18.6899 107.71C18.6899 108.11 19.1899 108.51 19.9898 108.91Z" fill="white"/>
<path d="M20.7889 118.51C20.7889 115.71 18.5891 113.51 15.7894 113.51C12.9897 113.51 10.7899 115.71 10.7899 118.51C10.7899 121.31 12.9897 123.509 15.7894 123.509C18.5891 123.509 20.7889 121.31 20.7889 118.51ZM16.5893 121.31H16.2894V122.21H15.2895V121.31H13.8896V120.31H16.5893C16.8893 120.31 17.1893 120.01 17.1893 119.71C17.1893 119.41 16.8893 119.11 16.5893 119.11H15.2895C14.3895 119.11 13.6896 118.41 13.6896 117.51C13.6896 116.61 14.3895 115.91 15.2895 115.91V115.01H16.2894V115.91H17.3892V116.91H15.2895C14.9895 116.91 14.6895 117.21 14.6895 117.51C14.6895 117.81 14.9895 118.11 15.2895 118.11H16.5893C17.4892 118.11 18.2891 118.81 18.2891 119.81C18.1892 120.51 17.4892 121.31 16.5893 121.31Z" fill="white"/>
<path d="M135.497 39.0456C145.021 36.6167 150.774 26.9262 148.345 17.4013C145.916 7.87632 136.226 2.12385 126.701 4.55276C117.176 6.98167 111.423 16.6722 113.852 26.1971C116.281 35.722 125.972 41.4745 135.497 39.0456Z" fill="#005EB8"/>
<path d="M122.788 12.7983H124.788C125.588 12.7983 126.188 13.3983 126.188 14.1982V23.4972C126.188 24.2972 125.588 24.8971 124.788 24.8971H122.788C121.988 24.8971 121.389 24.2972 121.389 23.4972V14.1982C121.389 13.4983 121.988 12.7983 122.788 12.7983Z" fill="white"/>
<path d="M131.688 30.8965C130.888 30.8965 130.488 30.4965 130.488 28.4968C130.488 26.5969 128.588 24.9971 127.389 24.1972V14.0982C128.688 13.4983 131.288 12.5984 135.288 12.5984H136.588C138.187 12.5984 139.487 13.6983 139.787 15.2981L140.687 20.5976C140.987 22.5974 139.487 24.3972 137.488 24.3972H133.688C133.688 24.3972 134.288 25.5971 134.288 27.5968C134.388 30.0966 132.588 30.8965 131.688 30.8965Z" fill="white"/>
<path d="M99.0184 72.0432C99.0309 60.4464 89.6401 51.0352 78.0433 51.0226C66.4465 51.0101 57.0353 60.401 57.0227 71.9978C57.0102 83.5945 66.4011 93.0058 77.9978 93.0183C89.5946 93.0309 99.0059 83.64 99.0184 72.0432Z" fill="#FFB81C"/>
<path d="M90.3192 68.0645C90.2192 68.0645 88.5193 67.2646 78.3204 62.865C78.1204 62.765 77.9204 62.765 77.7204 62.865L65.7217 68.0645C65.1217 68.3645 65.1217 69.2644 65.7217 69.5643C68.0214 70.5642 71.8211 72.2641 77.7204 74.7638C77.9204 74.8638 78.1204 74.8638 78.3204 74.7638C78.9203 74.5638 86.4196 71.2642 86.8195 71.0642V79.6633C86.8195 80.0633 87.1195 80.4632 87.6194 80.4632C88.1194 80.4632 88.4193 80.1633 88.4193 79.6633V70.8642C88.4193 70.7642 88.3194 70.6642 88.2194 70.6642C86.7195 70.4643 79.6202 69.5643 77.9204 69.3644C77.4205 69.2644 77.1205 68.7644 77.2205 68.3645C77.3205 67.9645 77.7205 67.7645 78.0204 67.7645L89.4192 69.2644C89.6192 69.2644 89.8192 69.4644 89.9192 69.5643C90.0192 69.6643 90.1192 69.7643 90.2192 69.6643C90.4191 69.5643 90.6191 69.4644 90.7191 69.1644C90.9191 68.6644 90.7191 68.2645 90.3192 68.0645Z" fill="white"/>
<path d="M77.0205 76.2636L70.3212 73.3639C70.1212 73.2639 70.0212 73.3639 70.0212 73.5639V76.4636C70.0212 79.1633 73.5209 81.2631 78.0204 81.2631C82.52 81.2631 86.0196 79.1633 86.0196 76.4636V73.5639C86.0196 73.3639 85.8196 73.2639 85.7196 73.3639L79.0203 76.2636C78.3204 76.4636 77.6205 76.4636 77.0205 76.2636Z" fill="white"/>
</svg>
