<?xml version="1.0" encoding="utf-8"?>
<!-- Generator: Adobe Illustrator 23.0.0, SVG Export Plug-In . SVG Version: 6.00 Build 0)  -->
<svg version="1.1" id="Layer_1" xmlns="http://www.w3.org/2000/svg" xmlns:xlink="http://www.w3.org/1999/xlink" x="0px" y="0px"
	 viewBox="0 0 20 20" style="enable-background:new 0 0 20 20;" xml:space="preserve">
<style type="text/css">
	.st0{fill:#454646;}
</style>
<g>
	<path class="st0" d="M17.7,1.5h-1.9V0.6c0-0.3-0.3-0.5-0.6-0.5c-0.3,0-0.6,0.2-0.6,0.5v0.8H5.4V0.6c0-0.3-0.3-0.5-0.6-0.5
		c-0.3,0-0.6,0.2-0.6,0.5v0.8H2.3C1,1.5,0,2.5,0,3.8v13.7c0,1.3,1,2.3,2.3,2.3h15.4c1.3,0,2.3-1,2.3-2.3V3.8C20,2.5,19,1.5,17.7,1.5
		z M2.3,2.7h1.9v0.9c0,0.3,0.3,0.5,0.6,0.5c0.3,0,0.6-0.2,0.6-0.5V2.7h9.2v0.9c0,0.3,0.3,0.5,0.6,0.5c0.3,0,0.6-0.2,0.6-0.5V2.7h1.9
		c0.6,0,1,0.5,1,1v2.7H1.3V3.8C1.3,3.2,1.7,2.7,2.3,2.7z M17.7,18.5H2.3c-0.6,0-1-0.5-1-1V7.7h17.5v9.8
		C18.8,18.1,18.3,18.5,17.7,18.5z"/>
	<path class="st0" d="M10,9.8H5.9c-0.6,0-1.1,0.5-1.1,1.1V15c0,0.6,0.5,1.1,1.1,1.1H10c0.6,0,1.1-0.5,1.1-1.1v-4.1
		C11.1,10.3,10.6,9.8,10,9.8z M10,15H6v-4h4V15z"/>
</g>
</svg>
