<svg width="20" height="20" viewBox="0 0 20 20" fill="none" xmlns="http://www.w3.org/2000/svg">
<path d="M17.7 1.3H15.8V0.5C15.8 0.2 15.5 0 15.2 0C14.9 0 14.6 0.2 14.6 0.5V1.3H5.4V0.5C5.4 0.2 5.1 0 4.8 0C4.4 0 4.2 0.2 4.2 0.5V1.3H2.3C1 1.3 0 2.4 0 3.6V17.4C0 18.7 1 19.7 2.3 19.7H17.7C19 19.7 20 18.7 20 17.4V3.6C20 2.4 19 1.3 17.7 1.3ZM2.3 2.6H4.2V3.5C4.2 3.8 4.4 4 4.8 4C5.1 4 5.4 3.8 5.4 3.5V2.6H14.6V3.5C14.6 3.8 14.9 4 15.2 4C15.5 4 15.8 3.8 15.8 3.5V2.6H17.7C18.3 2.6 18.7 3.1 18.7 3.6V6.3H1.3V3.6C1.3 3.1 1.7 2.6 2.3 2.6ZM17.7 18.4H2.3C1.7 18.4 1.3 17.9 1.3 17.4V7.6H18.8V17.4C18.8 18 18.3 18.4 17.7 18.4Z" fill="#999999"/>
<path d="M10 9.7002H5.90005C5.30005 9.7002 4.80005 10.2002 4.80005 10.8002V14.9002C4.80005 15.5002 5.30005 16.0002 5.90005 16.0002H10C10.6 16.0002 11.1 15.5002 11.1 14.9002V10.8002C11.1 10.2002 10.6 9.7002 10 9.7002ZM10 14.8002H6.00005V10.8002H10V14.8002Z" fill="#999999"/>
</svg>
