<svg width="17" height="20" viewBox="0 0 17 20" fill="none" xmlns="http://www.w3.org/2000/svg">
<path d="M14.7 2.5H11.3V1.9C11.3 0.9 10.5 0 9.4 0H6.9C5.8 0 5 0.8 5 1.9V2.5H1.6C0.7 2.5 0 3.2 0 4.1V6.3C0 6.6 0.3 6.9 0.6 6.9H1L1.5 18.2C1.5 19.2 2.4 20 3.4 20H12.9C13.9 20 14.7 19.2 14.8 18.2L15.3 6.9H15.6C15.9 6.9 16.2 6.6 16.2 6.3V4.1C16.2 3.2 15.5 2.5 14.7 2.5ZM6.3 1.9C6.3 1.6 6.6 1.3 6.9 1.3H9.4C9.7 1.3 10 1.6 10 1.9V2.5H6.3V1.9ZM1.3 4.1C1.3 3.9 1.4 3.8 1.6 3.8H14.7C14.9 3.8 15 3.9 15 4.1V5.7C14.8 5.7 2 5.7 1.2 5.7V4.1H1.3ZM13.5 18.2C13.5 18.5 13.2 18.8 12.9 18.8H3.4C3.1 18.8 2.8 18.5 2.8 18.2L2.2 6.9H14L13.5 18.2Z" fill="#7A7C7D"/>
<path d="M8.1 17.5002C8.4 17.5002 8.7 17.2002 8.7 16.9002V8.8002C8.7 8.5002 8.4 8.2002 8.1 8.2002C7.8 8.2002 7.5 8.5002 7.5 8.8002V16.9002C7.5 17.2002 7.8 17.5002 8.1 17.5002Z" fill="#7A7C7D"/>
<path d="M11.3 17.5002C11.6 17.5002 11.9 17.2002 11.9 16.9002V8.8002C11.9 8.5002 11.6 8.2002 11.3 8.2002C11 8.2002 10.7 8.5002 10.7 8.8002V16.9002C10.6 17.2002 10.9 17.5002 11.3 17.5002Z" fill="#7A7C7D"/>
<path d="M5.00039 17.5002C5.30039 17.5002 5.60039 17.2002 5.60039 16.9002V8.8002C5.60039 8.5002 5.30039 8.2002 5.00039 8.2002C4.70039 8.2002 4.40039 8.4002 4.40039 8.8002V16.9002C4.40039 17.2002 4.70039 17.5002 5.00039 17.5002Z" fill="#7A7C7D"/>
</svg>
