<svg width="20" height="20" viewBox="0 0 20 20" fill="none" xmlns="http://www.w3.org/2000/svg">
<path d="M19.4 2.4L17.6 0.6C16.8 -0.2 15.4 -0.2 14.6 0.6C13.8 1.4 1.9 13.3 1.1 14.1C1 14.2 1 14.3 0.9 14.4L0 19.3C0 19.5 0 19.7 0.2 19.8C0.3 20 0.5 20 0.7 20L5.6 19.1C5.7 19.1 5.8 19 5.9 18.9L19.4 5.4C20.2 4.6 20.2 3.3 19.4 2.4ZM1.3 18.7L1.8 15.7L4.2 18.1L1.3 18.7ZM5.5 17.7L2.3 14.5L13.9 3L17 6.1L5.5 17.7ZM18.5 4.6L17.8 5.3L14.6 2.1L15.3 1.4C15.7 1 16.3 1 16.6 1.4L18.4 3.2C18.9 3.6 18.9 4.2 18.5 4.6Z" fill="#7A7C7D"/>
</svg>
