<svg width="16" height="17" viewBox="0 0 16 17" fill="none" xmlns="http://www.w3.org/2000/svg">
<path d="M14.2414 1.5998C13.3414 0.699805 11.9414 0.699805 11.1414 1.5998L10.3414 2.3998L2.04142 10.6998L0.0414214 16.3998C-0.0585786 16.5998 0.0414214 16.6998 0.141421 16.7998C0.241421 16.9998 0.341421 16.9998 0.441421 16.9998H0.541421L6.04142 15.1998L15.1414 6.0998C16.0414 5.1998 16.0414 3.7998 15.1414 2.9998L14.2414 1.5998ZM6.04142 14.0998L2.94142 10.9998L10.6414 3.2998L13.7414 6.3998L6.04142 14.0998ZM2.54142 11.7998L5.24142 14.4998L1.24142 15.7998L2.54142 11.7998ZM14.7414 5.2998L14.2414 5.7998L11.1414 2.6998L11.6414 2.1998C12.1414 1.6998 13.0414 1.6998 13.5414 2.1998L14.7414 3.3998C15.3414 3.9998 15.2414 4.7998 14.7414 5.2998Z" fill="white"/>
</svg>
