<svg width="21" height="19" viewBox="0 0 21 19" fill="none" xmlns="http://www.w3.org/2000/svg">
<path d="M17.1 9.7002H15.1C14.8 9.7002 14.6 9.7002 14.3 9.8002C13.8 8.8002 12.8 8.2002 11.7 8.2002H8.3C7.2 8.2002 6.2 8.9002 5.7 9.8002C5.4 9.7002 5.2 9.7002 4.9 9.7002H2.9C1.3 9.7002 0 11.0002 0 12.6002V16.7002C0 17.7002 0.8 18.5002 1.8 18.5002H18.3C19.3 18.5002 20.1 17.7002 20.1 16.7002V12.6002C20 11.0002 18.7 9.7002 17.1 9.7002ZM5.3 11.1002V17.3002H1.8C1.5 17.3002 1.2 17.0002 1.2 16.7002V12.6002C1.2 11.6002 2 10.8002 3 10.8002H5C5.2 10.8002 5.3 10.8002 5.5 10.9002C5.3 11.0002 5.3 11.1002 5.3 11.1002ZM13.5 17.3002H6.5V11.1002C6.5 10.1002 7.3 9.3002 8.3 9.3002H11.8C12.8 9.3002 13.6 10.1002 13.6 11.1002V17.3002H13.5ZM18.8 16.8002C18.8 17.1002 18.5 17.4002 18.2 17.4002H14.6V11.2002C14.6 11.1002 14.6 11.1002 14.6 11.0002C14.7 11.0002 14.9 10.9002 15.1 10.9002H17.1C18.1 10.9002 18.9 11.7002 18.9 12.7002V16.8002H18.8Z" fill="#7A7C7D"/>
<path d="M3.90005 3.2002C2.50005 3.2002 1.30005 4.4002 1.30005 5.8002C1.30005 7.2002 2.50005 8.4002 3.90005 8.4002C5.30005 8.4002 6.50005 7.2002 6.50005 5.8002C6.50005 4.4002 5.30005 3.2002 3.90005 3.2002ZM3.90005 7.3002C3.10005 7.3002 2.50005 6.7002 2.50005 5.9002C2.50005 5.1002 3.10005 4.5002 3.90005 4.5002C4.70005 4.5002 5.30005 5.0002 5.30005 5.8002C5.30005 6.6002 4.70005 7.3002 3.90005 7.3002Z" fill="#7A7C7D"/>
<path d="M10 0C8.1 0 6.5 1.6 6.5 3.5C6.5 5.4 8.1 7 10 7C11.9 7 13.5 5.4 13.5 3.5C13.5 1.6 11.9 0 10 0ZM10 5.8C8.7 5.8 7.7 4.8 7.7 3.5C7.7 2.2 8.7 1.2 10 1.2C11.3 1.2 12.3 2.2 12.3 3.5C12.3 4.8 11.3 5.8 10 5.8Z" fill="#7A7C7D"/>
<path d="M16.1 3.2002C14.7 3.2002 13.5 4.4002 13.5 5.8002C13.5 7.2002 14.7 8.4002 16.1 8.4002C17.5 8.4002 18.7 7.2002 18.7 5.8002C18.7 4.4002 17.5 3.2002 16.1 3.2002ZM16.1 7.3002C15.3 7.3002 14.7 6.7002 14.7 5.9002C14.7 5.1002 15.3 4.5002 16.1 4.5002C16.9 4.5002 17.5 5.1002 17.5 5.9002C17.5 6.7002 16.9 7.3002 16.1 7.3002Z" fill="#7A7C7D"/>
</svg>
