<svg width="13" height="20" viewBox="0 0 13 20" fill="none" xmlns="http://www.w3.org/2000/svg">
<path d="M7.9 7.9L11.3 5.9C11.6 5.7 11.8 5.4 11.8 5.1V1C11.8 0.5 11.4 0 10.8 0H1.6C1.1 0 0.6 0.4 0.6 1V5C0.6 5.3 0.8 5.7 1.1 5.8L4.5 7.8C1.9 8.6 0 11 0 13.8C0 17.2 2.8 20 6.2 20C9.6 20 12.4 17.2 12.4 13.8C12.4 11 10.5 8.6 7.9 7.9ZM10.1 1.2L6.2 4L2.2 1.2H10.1ZM1.8 2.3L5.9 5.2C6.1 5.3 6.4 5.3 6.6 5.2L10.7 2.3V4.9L6.2 7.5L1.8 4.9V2.3ZM6.2 18.8C3.4 18.8 1.2 16.6 1.2 13.8C1.2 11 3.4 8.8 6.2 8.8C9 8.8 11.2 11 11.2 13.8C11.2 16.6 8.9 18.8 6.2 18.8Z" fill="#454646"/>
<path d="M8.60014 12.2001L7.60014 12.1001L7.20014 11.2001C6.80014 10.4001 5.60014 10.4001 5.20014 11.2001L4.70014 12.0001L3.70014 12.1001C2.80014 12.2001 2.40014 13.4001 3.10014 14.0001L3.80014 14.7001L3.60014 15.7001C3.40014 16.6001 4.40014 17.3001 5.20014 16.9001L6.10014 16.4001C7.00014 16.9001 7.10014 17.0001 7.50014 17.0001C8.20014 17.0001 8.70014 16.4001 8.60014 15.7001L8.40014 14.7001L9.10014 14.0001C9.90014 13.5001 9.50014 12.3001 8.60014 12.2001ZM7.70014 14.0001C7.40014 14.3001 7.30014 14.6001 7.40014 15.0001L7.60014 15.9001C6.80014 15.5001 6.60014 15.3001 6.30014 15.3001C5.90014 15.3001 5.80014 15.4001 5.00014 15.9001V15.0001C5.10014 14.6001 4.90014 14.3001 4.70014 14.0001L4.00014 13.3001L4.90014 13.2001C5.30014 13.1001 5.60014 12.9001 5.80014 12.6001L6.20014 11.8001L6.60014 12.6001C6.80014 12.9001 7.10014 13.2001 7.50014 13.2001L8.40014 13.3001L7.70014 14.0001Z" fill="#454646"/>
</svg>
