<svg width="19" height="20" viewBox="0 0 19 20" fill="none" xmlns="http://www.w3.org/2000/svg">
<path d="M12.7 5.9L11.9 5L5 11.9C4.1 12.8 4.1 14.1 5 15C5.9 15.9 7.2 15.9 8.1 15L17.4 5.7C18 5.1 18.4 4.2 18.4 3.3C18.4 2.4 18 1.6 17.3 1C16.7 0.4 15.8 0 14.9 0C14 0 13.2 0.4 12.5 1L1.3 12.2C0.4 13.1 0 14.2 0 15.4C0 16.6 0.5 17.8 1.3 18.6C2.1 19.4 3.3 19.9 4.5 19.9C5.7 19.9 6.9 19.4 7.7 18.6L16.6 9.7L15.8 8.9L6.9 17.8C6.3 18.4 5.4 18.8 4.5 18.8C3.6 18.8 2.8 18.5 2.1 17.8C1.5 17.2 1.1 16.3 1.1 15.4C1.1 14.5 1.4 13.7 2.1 13L13.4 1.8C14.3 0.9 15.6 0.9 16.5 1.8C17.4 2.7 17.4 4 16.5 4.9L7.2 14.2C6.8 14.6 6.2 14.6 5.8 14.2C5.4 13.8 5.4 13.2 5.8 12.8L12.7 5.9Z" fill="#454646"/>
</svg>
