<svg width="12" height="16" viewBox="0 0 12 16" fill="none" xmlns="http://www.w3.org/2000/svg">
<path d="M6 0C2.7 0 0 2.7 0 6C0 10.2 5.4 15.6 5.6 15.9C5.7 16 5.9 16 6 16C6.1 16 6.3 16 6.4 15.9C6.6 15.6 12 10.2 12 6C12 2.7 9.3 0 6 0ZM6 14.8C4.8 13.5 1 9.2 1 6C1 3.2 3.2 1 6 1C8.8 1 11 3.2 11 6C11 9.2 7.2 13.5 6 14.8Z" fill="#7A7C7D"/>
<path d="M6 3C4.3 3 3 4.3 3 6C3 7.7 4.3 9 6 9C7.7 9 9 7.7 9 6C9 4.3 7.7 3 6 3ZM6 8C4.9 8 4 7.1 4 6C4 4.9 4.9 4 6 4C7.1 4 8 4.9 8 6C8 7.1 7.1 8 6 8Z" fill="#7A7C7D"/>
</svg>
