<svg width="16" height="20" viewBox="0 0 16 20" fill="none" xmlns="http://www.w3.org/2000/svg">
<path d="M15.5 15.9C15.4 15.9 15 15.6 14.6 14.6C13.8 12.9 13.6 10.5 13.6 8.7C13.6 6.4 12.2 4.4 10.3 3.6V2.2C10.2 1 9.2 0 8 0H7.8C6.6 0 5.6 1 5.6 2.2V3.6C3.6 4.5 2.3 6.5 2.3 8.8C2.3 10.5 2.1 13 1.3 14.7C0.9 15.6 0.4 15.9 0.4 16C0.1 16 0 16.3 0 16.6C0.1 16.8 0.3 17 0.6 17H4.9C4.9 18.6 6.3 20 7.9 20C9.5 20 10.9 18.7 10.9 17H15.2C15.5 17 15.7 16.8 15.8 16.5C15.9 16.3 15.7 16 15.5 15.9ZM6.8 2.2C6.8 1.6 7.3 1.1 7.9 1.1H8C8.6 1.1 9.1 1.6 9.1 2.2V3.2C8.7 3.1 8.3 3.1 7.9 3.1C7.5 3.1 7.1 3.1 6.8 3.2V2.2ZM7.9 18.8C6.9 18.8 6.1 18 6.1 17H9.8C9.7 18 8.9 18.8 7.9 18.8ZM10.3 15.8H2C2.1 15.6 2.2 15.5 2.3 15.3C3.1 13.8 3.5 11.5 3.5 8.7C3.5 6.2 5.5 4.2 8 4.2C10.5 4.2 12.5 6.2 12.5 8.7C12.5 11.5 12.9 13.7 13.7 15.2C13.8 15.4 13.9 15.6 14 15.7L10.3 15.8Z" fill="#999999"/>
</svg>
