<svg width="36" height="36" viewBox="0 0 36 36" fill="none" xmlns="http://www.w3.org/2000/svg">
<path d="M33.6 9C31.2 4.8 27.3 1.9 22.7 0.6C18 -0.6 13.2 0 9 2.4C4.8 4.8 1.9 8.7 0.6 13.3C-0.6 18 0 22.8 2.4 27C4.8 31.2 8.7 34.1 13.3 35.4C14.9 35.8 16.4 36 18 36C21.1 36 24.2 35.2 27 33.6C31.2 31.2 34.1 27.3 35.4 22.7C36.6 18 36 13.2 33.6 9ZM33.6 22.2C32.5 26.4 29.8 29.8 26.1 32C22.4 34.2 18 34.7 13.9 33.6C9.7 32.5 6.3 29.8 4.1 26.1C1.9 22.3 1.3 18 2.4 13.8C3.5 9.7 6.2 6.2 9.9 4C12.4 2.6 15.1 1.8 17.9 1.8C19.3 1.8 20.7 2 22.1 2.4C26.3 3.5 29.7 6.2 31.9 9.9C34.1 13.7 34.7 18 33.6 22.2Z" fill="white"/>
<path d="M26.5996 16.3L15.0996 9.60005C14.4996 9.20005 13.7996 9.20005 13.0996 9.60005C12.4996 10 12.0996 10.6 12.0996 11.3V24.7C12.0996 25.4 12.4996 26 13.0996 26.4C13.3996 26.6 13.6996 26.7 14.0996 26.7C14.3996 26.7 14.7996 26.6 15.0996 26.4L26.6996 19.7C27.2996 19.3 27.6996 18.7 27.6996 18C27.5996 17.3 27.1996 16.7 26.5996 16.3ZM25.6996 18.1L14.0996 24.8C14.0996 24.8 14.0996 24.8 13.9996 24.8V24.7V11.3V11.2L25.5996 17.9C25.6996 17.9 25.6996 17.9 25.6996 18.1Z" fill="white"/>
</svg>
