<svg width="20" height="17" viewBox="0 0 20 17" fill="none" xmlns="http://www.w3.org/2000/svg">
<path d="M19.4 7.5H17.8H17.7C17.4 7.2 17 7 16.5 6.8C17.5 6.1 18.1 5 18.1 3.8C18.1 1.7 16.4 0.1 14.4 0.1C12.3 0.1 10.7 1.8 10.7 3.8C10.7 4.8 11.1 5.7 11.7 6.4H8.9C9.5 5.7 9.9 4.8 9.9 3.8C10 1.7 8.3 0 6.2 0C4.1 0 2.5 1.7 2.5 3.7C2.5 4.9 3 5.9 3.8 6.6C3.3 6.8 2.8 7.1 2.3 7.5H2.2H0.6C0.3 7.5 0 7.8 0 8.1V11.2C0 11.5 0.3 11.8 0.6 11.8V16.2C0.6 16.5 0.9 16.8 1.2 16.8H18.8C19.1 16.8 19.4 16.5 19.4 16.2V11.8C19.7 11.8 20 11.5 20 11.2V8.1C20 7.8 19.7 7.5 19.4 7.5ZM18.8 10.7H17.8C17.3 10.7 16.8 10.3 16.8 9.7C16.8 9.2 17.2 8.7 17.8 8.7H18.8V10.7ZM11.8 3.7C11.8 2.3 12.9 1.1 14.4 1.1C15.9 1.1 17 2.2 17 3.7C17 5.1 15.9 6.3 14.4 6.3C13 6.3 11.8 5.1 11.8 3.7ZM6.2 1.2C7.6 1.2 8.8 2.3 8.8 3.8C8.8 5.3 7.6 6.3 6.2 6.3C4.8 6.3 3.6 5.2 3.6 3.7C3.7 2.3 4.8 1.2 6.2 1.2ZM1.2 8.7H2.2C2.7 8.7 3.2 9.1 3.2 9.7C3.2 10.2 2.8 10.7 2.2 10.7H1.2V8.7ZM1.8 11.8H2.2C3.4 11.8 4.4 10.8 4.4 9.6C4.3 9 4 8.4 3.5 8C4.1 7.6 4.8 7.4 5.5 7.4H11.1C10 8.3 9.3 9.7 9.3 11.2V15.6H4.3V13C4.3 12.7 4 12.4 3.7 12.4C3.4 12.4 3.1 12.7 3.1 13V15.6H1.8V11.8ZM18.2 15.7H16.9V13.1C16.9 12.8 16.6 12.5 16.3 12.5C16 12.5 15.7 12.8 15.7 13.1V15.7H10.6V11.3C10.6 9.2 12.3 7.5 14.4 7.5C15.1 7.5 15.8 7.7 16.5 8.1C16 8.5 15.7 9.1 15.7 9.7C15.7 10.9 16.7 11.9 17.9 11.9H18.3V15.7H18.2Z" fill="#454646"/>
</svg>
