<svg width="18" height="20" viewBox="0 0 18 20" fill="none" xmlns="http://www.w3.org/2000/svg">
<path d="M8.8 0C5.9 0 3.5 2.4 3.5 5.3C3.5 8.2 5.9 10.6 8.8 10.6C11.7 10.6 14.1 8.2 14.1 5.3C14.1 2.4 11.7 0 8.8 0ZM8.8 9.4C6.5 9.4 4.7 7.6 4.7 5.3C4.7 3 6.5 1.2 8.8 1.2C11.1 1.2 12.9 3 12.9 5.3C12.9 7.6 11.1 9.4 8.8 9.4Z" fill="#7A7C7D"/>
<path d="M15.4 14.0002C14 12.5002 12 11.7002 10 11.7002H7.6C5.6 11.7002 3.7 12.5002 2.2 14.0002C0.8 15.5002 0 17.4002 0 19.4002C0 19.7002 0.3 20.0002 0.6 20.0002H17C17.3 20.0002 17.6 19.7002 17.6 19.4002C17.6 17.4002 16.8 15.5002 15.4 14.0002ZM1.2 18.8002C1.5 15.5002 4.3 12.9002 7.6 12.9002H10C13.4 12.9002 16.1 15.5002 16.4 18.8002H1.2Z" fill="#7A7C7D"/>
</svg>
