<svg width="20" height="20" viewBox="0 0 20 20" fill="none" xmlns="http://www.w3.org/2000/svg">
<path d="M10 0C4.5 0 0 4.5 0 10C0 15.5 4.5 20 10 20C15.5 20 20 15.5 20 10C20 4.5 15.5 0 10 0ZM10 1.2C11 1.2 11.9 1.4 12.8 1.7C12.6 1.9 12.5 2.3 12.5 2.7C12.5 3.3 12.8 3.9 13.1 4.4C13.3 4.8 13.5 5.3 13.5 5.6C13.5 5.8 13.5 5.9 13.3 5.9C13 6 12.4 6 12 6C11 6 9.9 6 8.8 7.2C8.6 7.3 8.5 7.3 7.9 7C7.4 6.8 6.6 6.3 5.8 7.1C5.3 7.6 5.1 8.3 5.3 8.9C4.7 8.7 3.9 8.6 3.8 8.3C3.8 8.2 3.7 7.7 4.7 6.1C5 5.5 5.5 4.7 5.1 4C4.9 3.7 4.5 3.5 4.2 3.4C5.7 2 7.8 1.2 10 1.2ZM10 18.8C5.1 18.8 1.2 14.8 1.2 10C1.2 7.9 1.9 6 3.2 4.5C3.8 4.5 4 4.5 4 4.6C4 4.6 4 4.9 3.6 5.5C2.6 7.1 2.4 8 2.6 8.7C3 9.7 4.2 9.7 4.8 10C5.2 10.2 7.2 11.1 7.4 11.5V12.5C7.4 13.2 8.1 13.6 8.7 13.9C8.9 14 9.4 14.3 9.4 14.4C9.6 16.8 9.8 18.1 10 18.8ZM11.5 18.2C11.5 18.3 11.4 18.6 11.3 18.7C11.2 18.5 10.7 17.6 10.7 14.5C10.7 13.7 10 13.3 9.4 13C9.2 12.9 8.8 12.7 8.7 12.5V11.5C8.7 11.3 8.7 11.2 8.6 11.1C9.6 11 10 10.7 10.4 10.4C10.7 10.2 10.8 10.1 11.1 10.1C11.2 10.1 11.3 10.3 11.4 10.5C12.1 11.6 12.7 12 14 12.3C14.2 12.3 14.4 12.4 14.5 12.4C14.5 12.4 14.5 12.4 14.5 12.5C14.5 13.7 13.6 14.6 12.7 15.4C12 16 11.5 16.6 11.5 17.2C11.5 17.3 11.5 18.1 11.5 18.2ZM12.7 18.4C12.7 18.3 12.7 18.2 12.7 18.2C12.7 18.1 12.7 17.2 12.7 17.2C12.7 17.2 12.7 17.1 12.9 16.9C13.1 16.7 13.3 16.5 13.6 16.2C14.5 15.4 15.7 14.2 15.7 12.5C15.7 11.9 15.4 11.6 15.2 11.4C14.9 11.2 14.6 11.2 14.3 11.1C13.4 10.9 13 10.7 12.5 9.9C12.3 9.5 11.9 8.9 11.2 8.9C10.5 8.9 10.2 9.2 9.9 9.4C9.4 9.7 9.1 9.9 8.2 9.9C7.3 9.9 6.7 9.4 6.5 8.9C6.4 8.7 6.3 8.3 6.6 8C6.8 7.8 6.8 7.8 7.4 8.1C7.9 8.3 8.8 8.8 9.6 8C10.4 7.2 11.1 7.2 12 7.2C12.6 7.2 13.2 7.2 13.7 7C14.4 6.8 14.7 6.3 14.7 5.6C14.7 5 14.4 4.4 14.1 3.9C13.9 3.5 13.7 3 13.7 2.7C13.7 2.4 13.8 2.3 14.1 2.3C16.9 3.8 18.9 6.7 18.9 10.1C18.8 13.9 16.2 17.3 12.7 18.4Z" fill="#7A7C7D"/>
</svg>
