<svg width="18" height="18" viewBox="0 0 18 18" fill="none" xmlns="http://www.w3.org/2000/svg">
<path d="M17.7978 16.7191L12.6742 11.5955C13.6629 10.3371 14.2921 8.80899 14.2921 7.10112C14.2921 3.14607 11.0562 0 7.19101 0C3.32584 0 0 3.23595 0 7.10112C0 10.9663 3.23595 14.2022 7.10112 14.2022C8.80899 14.2022 10.3371 13.573 11.5955 12.5843L16.7191 17.7079C16.8989 17.8876 17.0787 17.8876 17.2584 17.8876C17.4382 17.8876 17.618 17.7978 17.7978 17.7079C18.0674 17.4382 18.0674 16.9888 17.7978 16.7191ZM7.10112 12.764C4.04494 12.764 1.52809 10.2472 1.52809 7.19101C1.52809 4.13483 4.04494 1.61798 7.10112 1.61798C10.1573 1.61798 12.6742 4.13483 12.6742 7.19101C12.6742 10.2472 10.2472 12.764 7.10112 12.764Z" fill="#999999"/>
</svg>
