<svg width="20" height="6" viewBox="0 0 20 6" fill="none" xmlns="http://www.w3.org/2000/svg">
<path d="M5.5 2.8C5.5 1.2 4.3 0 2.8 0C1.2 0 0 1.2 0 2.8C0 4.3 1.2 5.6 2.8 5.6C4.3 5.5 5.5 4.3 5.5 2.8ZM1.4 2.8C1.4 2 2 1.4 2.8 1.4C3.6 1.4 4.1 2 4.1 2.8C4.1 3.6 3.5 4.2 2.7 4.2C1.9 4.2 1.4 3.5 1.4 2.8Z" fill="#E31C79"/>
<path d="M12.8 2.8C12.8 1.2 11.5 0 9.99995 0C8.49995 0 7.19995 1.2 7.19995 2.8C7.19995 4.4 8.49995 5.5 9.99995 5.5C11.5 5.5 12.8 4.3 12.8 2.8ZM8.59995 2.8C8.59995 2 9.19995 1.4 9.99995 1.4C10.8 1.4 11.4 2 11.4 2.8C11.4 3.6 10.8 4.2 9.99995 4.2C9.19995 4.2 8.59995 3.5 8.59995 2.8Z" fill="#E31C79"/>
<path d="M20 2.8C20 1.2 18.8 0 17.2 0C15.7 0 14.4 1.2 14.4 2.8C14.4 4.4 15.6 5.6 17.2 5.6C18.8 5.5 20 4.3 20 2.8ZM15.9 2.8C15.9 2 16.5 1.4 17.3 1.4C18.1 1.4 18.7 2 18.7 2.8C18.7 3.6 18 4.1 17.2 4.1C16.5 4.1 15.9 3.5 15.9 2.8Z" fill="#E31C79"/>
</svg>
