<?xml version="1.0"?>
<svg xmlns="http://www.w3.org/2000/svg" xmlns:xlink="http://www.w3.org/1999/xlink" xmlns:svgjs="http://svgjs.com/svgjs" version="1.1" width="512" height="512" x="0" y="0" viewBox="0 0 512 512" style="enable-background:new 0 0 512 512" xml:space="preserve" class=""><g><path xmlns="http://www.w3.org/2000/svg" d="m372.573 48.468c-31.254-31.255-72.655-48.468-116.573-48.468s-85.318 17.213-116.573 48.468-48.468 72.655-48.468 116.573v181.917c0 43.918 17.213 85.318 48.468 116.573 31.255 31.256 72.655 48.469 116.573 48.469s85.318-17.213 116.573-48.468 48.468-72.655 48.468-116.573v-181.917c0-43.919-17.213-85.319-48.468-116.574zm-116.573-18.468c74.462 0 135.041 60.579 135.041 135.042v69.507l-32.14 20.216c-3.012-12.113-8.158-23.644-15.234-34.046 8.331-12.612 14.015-27.116 16.257-42.719h.117c8.284 0 15-6.716 15-15s-6.716-15-15-15h-.117c-7.301-50.817-51.119-90-103.924-90s-96.623 39.183-103.924 90h-.035c-8.284 0-15 6.716-15 15s6.716 15 15 15h.035c2.242 15.603 7.925 30.107 16.257 42.719-6.444 9.473-11.298 19.88-14.387 30.813l-32.987-25.488v-61.003c0-74.462 60.579-135.041 135.041-135.041zm-7.774 294.38-67.803-52.389c1.076-9.828 4.072-19.345 8.801-28.018 18.162 15.003 41.435 24.027 66.776 24.027s48.615-9.024 66.775-24.027c4.723 8.662 7.717 18.166 8.797 27.982zm-7.57-232.239c3.465 24.024 20.89 43.466 44.393 49.532 1.257.325 2.518.479 3.759.479 6.676 0 12.768-4.491 14.514-11.255 2.07-8.021-2.755-16.202-10.776-18.272-11.227-2.898-19.665-11.907-21.907-23.181 34.37 6.829 60.361 37.21 60.361 73.556 0 41.355-33.645 75-75 75-41.174 0-74.693-33.354-74.986-74.46.006-.181.027-.358.027-.541 0-.182-.021-.36-.027-.54.256-35.809 25.726-65.727 59.508-72.844-.021.832.011 1.674.134 2.526zm-119.697 171.815 100.22 77.437-90.153 56.707c-6.482-15.783-10.067-33.05-10.067-51.141zm135.041 218.044c-45.654 0-86.084-22.777-110.538-57.561.139-.082.281-.156.418-.243l245.161-154.208v76.969c0 74.464-60.579 135.043-135.041 135.043z" fill="#524f4f" data-original="#000000" style="" class=""/></g></svg>
