<?xml version="1.0"?>
<svg xmlns="http://www.w3.org/2000/svg" xmlns:xlink="http://www.w3.org/1999/xlink" xmlns:svgjs="http://svgjs.com/svgjs" version="1.1" width="512" height="512" x="0" y="0" viewBox="0 0 512 512" style="enable-background:new 0 0 512 512" xml:space="preserve" class=""><g><g xmlns="http://www.w3.org/2000/svg"><path d="m256 488.058c-4.401 0-8.801-1.302-12.641-3.909-25.662-17.414-49.314-34.46-70.302-50.664-3.278-2.532-3.884-7.241-1.353-10.52 2.533-3.28 7.243-3.883 10.521-1.353 20.745 16.018 44.147 32.882 69.557 50.125 2.523 1.712 5.913 1.711 8.435 0 54.937-37.281 99.278-71.94 133.954-104.778-37.769-8.794-146.543-34.146-215.322-50.418-4.031-.954-6.525-4.994-5.572-9.025.954-4.031 5.002-6.526 9.025-5.572 4.628 1.095 9.445 2.232 14.401 3.402-3.914-8.12-5.142-17.594-2.828-27.011 4.355-17.731 22.325-28.613 40.055-24.26 4.022.988 6.482 5.05 5.494 9.073-.988 4.022-5.051 6.479-9.072 5.495-9.699-2.383-19.528 3.571-21.91 13.27-3.315 13.499 4.971 27.179 18.47 30.494 4.698 1.154 9.564.41 13.703-2.098 4.139-2.506 7.053-6.474 8.207-11.172.987-4.023 5.046-6.485 9.071-5.495 4.023.988 6.483 5.049 5.495 9.072-1.534 6.25-4.773 11.793-9.338 16.114 23.514 5.513 47.487 11.12 69.396 16.236-.394-2.274-.594-4.588-.594-6.917 0-22.304 18.146-40.45 40.45-40.45 2.245 0 4.447.184 6.594.537 3.845-9.557 4.644-18.284 3.854-25.847-10.468 4.1-23.878 4.767-33.529 2.596-4.042-.908-6.581-4.921-5.673-8.962s4.92-6.583 8.962-5.672c9.904 2.227 20.467.14 26.475-2.69-2.604-6.291-5.839-10.822-7.69-13.124-1.669-2.076-2.112-4.882-1.163-7.372 2.444-6.413 2.401-11.926-.122-15.522-2.596-3.699-8.046-5.765-14.975-5.633-.043 0-.086.001-.129.001-3.283 0-6.191-2.138-7.164-5.284-5.98-19.34-16.855-36.972-31.448-50.991-15.032-14.441-33.744-24.718-54.113-29.721-63.877-15.689-128.604 23.516-144.293 87.392-6.508 26.502-3.724 54.434 7.816 79.047 9.947 2.384 22.35 5.333 36.935 8.784 4.031.954 6.525 4.994 5.572 9.025-.953 4.03-4.996 6.528-9.025 5.572-16.205-3.833-29.719-7.05-40.174-9.56-.167-.034-.332-.074-.496-.12-30.222-7.302-55.925-21.346-74.867-40.823 22.055 46.91 63.202 93.924 126.093 145.243 3.21 2.619 3.688 7.343 1.069 10.553-2.618 3.208-7.345 3.688-10.552 1.069-104.61-85.362-151.259-160.145-151.259-242.481 0-82.585 67.188-149.772 149.772-149.772 39.927 0 78.194 16.019 106.228 44.207 28.033-28.188 66.301-44.207 106.228-44.207 26.88 0 53.247 7.206 76.251 20.837 3.563 2.112 4.74 6.712 2.629 10.276-2.11 3.564-6.713 4.741-10.275 2.628-20.69-12.261-44.414-18.742-68.604-18.742-38.382 0-75.06 16.451-100.629 45.134-1.423 1.596-3.46 2.509-5.599 2.509s-4.176-.913-5.599-2.509c-25.569-28.683-62.247-45.134-100.629-45.134-74.314.001-134.773 60.459-134.773 134.773 0 49.861 31.546 90.01 83.375 107.616-8.902-24.738-10.385-51.724-4.054-77.503 17.661-71.909 90.533-116.041 162.438-98.382 22.927 5.631 43.995 17.205 60.927 33.471 15.144 14.547 26.728 32.552 33.717 52.332 9.541 1.008 17.192 5.089 21.886 11.777 4.81 6.854 5.902 15.769 3.197 25.438 10.893 15.518 17.538 39.33 7.493 64.928 11.834 7.066 19.774 20 19.774 34.756 0 8.737-2.771 17.029-7.746 23.839 4.658 1.085 8.356 1.946 10.917 2.542 13.385-13.448 25.124-26.601 35.282-39.513 36.871-46.867 54.794-93.087 54.794-141.301 0-38.205-16.315-74.767-44.764-100.312-3.082-2.768-3.337-7.509-.569-10.591 2.765-3.082 7.507-3.338 10.591-.57 31.612 28.386 49.742 69.016 49.742 111.473 0 51.708-18.974 100.961-58.005 150.575-11.135 14.153-24.081 28.56-38.93 43.298-.304.364-.64.696-1.003.994-36.634 36.189-84.704 74.365-145.422 115.569-3.838 2.605-8.24 3.908-12.64 3.908zm84.271-149.065c14.642 3.417 27.902 6.509 38.885 9.068 6.054-4.813 9.597-12.079 9.597-19.914 0-14.033-11.417-25.45-25.45-25.45s-25.45 11.417-25.45 25.45c0 3.771.831 7.474 2.418 10.846zm-42.302-99.17c-3.506 0-7.064-.734-10.455-2.284-3.768-1.722-5.425-6.172-3.703-9.939 1.723-3.767 6.172-5.425 9.939-3.702 5.134 2.345 11.22.081 13.565-5.053 1.723-3.767 6.17-5.426 9.94-3.702 3.767 1.723 5.424 6.172 3.701 9.939-4.234 9.263-13.41 14.741-22.987 14.741z" fill="#484646" data-original="#000000" style="" class=""/></g></g></svg>
