<?xml version="1.0"?>
<svg xmlns="http://www.w3.org/2000/svg" xmlns:xlink="http://www.w3.org/1999/xlink" xmlns:svgjs="http://svgjs.com/svgjs" version="1.1" width="512" height="512" x="0" y="0" viewBox="0 0 24 24" style="enable-background:new 0 0 512 512" xml:space="preserve" class=""><g transform="matrix(1,0,0,1,0,0)"><path xmlns="http://www.w3.org/2000/svg" d="m16.25 14h-8.5c-.965 0-1.75-.785-1.75-1.75v-4.5c0-.965.785-1.75 1.75-1.75h8.5c.965 0 1.75.785 1.75 1.75v4.5c0 .965-.785 1.75-1.75 1.75zm-8.5-6.5c-.138 0-.25.112-.25.25v4.5c0 .138.112.25.25.25h8.5c.138 0 .25-.112.25-.25v-4.5c0-.138-.112-.25-.25-.25z" fill="#625f5f" data-original="#000000" style="" class=""/><path xmlns="http://www.w3.org/2000/svg" d="m14.25 7.5c-.414 0-.75-.336-.75-.75v-1.5c0-.138-.112-.25-.25-.25h-2.5c-.138 0-.25.112-.25.25v1.5c0 .414-.336.75-.75.75s-.75-.336-.75-.75v-1.5c0-.965.785-1.75 1.75-1.75h2.5c.965 0 1.75.785 1.75 1.75v1.5c0 .414-.336.75-.75.75z" fill="#625f5f" data-original="#000000" style="" class=""/><path xmlns="http://www.w3.org/2000/svg" d="m12 11c-.11 0-.221-.024-.322-.073l-5.25-2.5c-.374-.178-.533-.625-.355-.999.177-.374.626-.534.999-.355l4.928 2.346 4.928-2.346c.373-.18.821-.02.999.354.179.374.02.821-.354.999l-5.25 2.5c-.102.05-.213.074-.323.074z" fill="#625f5f" data-original="#000000" style="" class=""/><path xmlns="http://www.w3.org/2000/svg" d="m22.25 18h-20.5c-.965 0-1.75-.785-1.75-1.75v-14.5c0-.965.785-1.75 1.75-1.75h20.5c.965 0 1.75.785 1.75 1.75v14.5c0 .965-.785 1.75-1.75 1.75zm-20.5-16.5c-.138 0-.25.112-.25.25v14.5c0 .138.112.25.25.25h20.5c.138 0 .25-.112.25-.25v-14.5c0-.138-.112-.25-.25-.25z" fill="#625f5f" data-original="#000000" style="" class=""/><path xmlns="http://www.w3.org/2000/svg" d="m8.25 24c-.414 0-.75-.336-.75-.75v-6c0-.414.336-.75.75-.75s.75.336.75.75v6c0 .414-.336.75-.75.75z" fill="#625f5f" data-original="#000000" style="" class=""/><path xmlns="http://www.w3.org/2000/svg" d="m15.75 24c-.414 0-.75-.336-.75-.75v-6c0-.414.336-.75.75-.75s.75.336.75.75v6c0 .414-.336.75-.75.75z" fill="#625f5f" data-original="#000000" style="" class=""/><path xmlns="http://www.w3.org/2000/svg" d="m18.25 24h-12.5c-.414 0-.75-.336-.75-.75s.336-.75.75-.75h12.5c.414 0 .75.336.75.75s-.336.75-.75.75z" fill="#625f5f" data-original="#000000" style="" class=""/></g></svg>
