<?xml version="1.0" encoding="utf-8"?>
<!-- Generator: Adobe Illustrator 23.0.0, SVG Export Plug-In . SVG Version: 6.00 Build 0)  -->
<svg version="1.1" id="Layer_1" xmlns="http://www.w3.org/2000/svg" xmlns:xlink="http://www.w3.org/1999/xlink" x="0px" y="0px"
	 viewBox="0 0 100 100" style="enable-background:new 0 0 100 100;" xml:space="preserve">
<style type="text/css">
	.st0{fill:#999999;}
</style>
<path class="st0" d="M50,1C22.9,1,1,22.9,1,50s21.9,49,49,49s49-21.9,49-49S77.1,1,50,1z M50,20c7.8,0,14.2,6.4,14.2,14.2
	c0,7.8-6.4,14.2-14.2,14.2s-14.2-6.4-14.2-14.2C35.8,26.4,42.2,20,50,20z M76.4,80H23.6c-2.4,0-4.4-2.2-4-4.7
	c2.3-14.1,15-22.2,30.4-22.2c15.4,0,28.1,8.1,30.4,22.2C80.8,77.8,78.9,80,76.4,80z"/>
</svg>
